<svg xmlns="http://www.w3.org/2000/svg" xmlns:xlink="http://www.w3.org/1999/xlink" width="1024" height="1024" viewBox="0 0 1024 1024" fill="none"><defs><rect id="path_0" x="0" y="0" width="1024" height="1024" /><linearGradient id="linear_0" x1="-21056.33870967742%" y1="95413.58695652174%" x2="-20992.33870967742%" y2="95421.67391304347%" gradientUnits="objectBoundingBox"><stop offset="0" stop-color="#98D6FA" stop-opacity="1" /><stop offset="1" stop-color="#47B0F1" stop-opacity="1" /></linearGradient><linearGradient id="linear_1" x1="-21056.33870967742%" y1="95413.58695652174%" x2="-20992.33870967742%" y2="95421.67391304347%" gradientUnits="objectBoundingBox"><stop offset="0" stop-color="#98D6FA" stop-opacity="1" /><stop offset="1" stop-color="#47B0F1" stop-opacity="1" /></linearGradient><linearGradient id="linear_2" x1="-21354.003225806453%" y1="93604.33333333333%" x2="-21254.003225806453%" y2="93604.33333333333%" gradientUnits="objectBoundingBox"><stop offset="0" stop-color="#FFF5DE" stop-opacity="1" /><stop offset="1" stop-color="#FBD2AC" stop-opacity="1" /></linearGradient><linearGradient id="linear_3" x1="-20831.948711099234%" y1="97202.49560983774%" x2="-20768.948711099238%" y2="97208.35083235342%" gradientUnits="objectBoundingBox"><stop offset="0" stop-color="#98D6FA" stop-opacity="1" /><stop offset="1" stop-color="#47B0F1" stop-opacity="1" /></linearGradient><linearGradient id="linear_4" x1="-20565.306122448957%" y1="98672.92021634924%" x2="-20501.367731998438%" y2="98678.75751980762%" gradientUnits="objectBoundingBox"><stop offset="0" stop-color="#98D6FA" stop-opacity="1" /><stop offset="1" stop-color="#47B0F1" stop-opacity="1" /></linearGradient><linearGradient id="linear_5" x1="-20541.51923076923%" y1="98895.19716608555%" x2="-20477.654615384614%" y2="98901.047632368%" gradientUnits="objectBoundingBox"><stop offset="0" stop-color="#98D6FA" stop-opacity="1" /><stop offset="1" stop-color="#47B0F1" stop-opacity="1" /></linearGradient><linearGradient id="linear_6" x1="-20212.833333333332%" y1="101885.92504838352%" x2="-20149.88583333333%" y2="101891.79949920243%" gradientUnits="objectBoundingBox"><stop offset="0" stop-color="#98D6FA" stop-opacity="1" /><stop offset="1" stop-color="#47B0F1" stop-opacity="1" /></linearGradient><linearGradient id="linear_7" x1="-21163.947997110954%" y1="93534.33307292547%" x2="-21124.945830323908%" y2="93568.5710403858%" gradientUnits="objectBoundingBox"><stop offset="0" stop-color="#98D6FA" stop-opacity="1" /><stop offset="1" stop-color="#47B0F1" stop-opacity="1" /></linearGradient><linearGradient id="linear_8" x1="-92575.44275097449%" y1="-20874.148825195127%" x2="-92473.14275097448%" y2="-20895.14882519513%" gradientUnits="objectBoundingBox"><stop offset="0" stop-color="#98D6FA" stop-opacity="1" /><stop offset="1" stop-color="#47B0F1" stop-opacity="1" /></linearGradient><linearGradient id="linear_9" x1="-92630.91229568265%" y1="-21080.62729361864%" x2="-92422.91229568263%" y2="-21065.627293618632%" gradientUnits="objectBoundingBox"><stop offset="0" stop-color="#98D6FA" stop-opacity="1" /><stop offset="1" stop-color="#47B0F1" stop-opacity="1" /></linearGradient><linearGradient id="linear_10" x1="-92631.4107183544%" y1="-21083.57750494055%" x2="-92411.41071835441%" y2="-21103.577504940546%" gradientUnits="objectBoundingBox"><stop offset="0" stop-color="#98D6FA" stop-opacity="1" /><stop offset="1" stop-color="#47B0F1" stop-opacity="1" /></linearGradient><linearGradient id="linear_11" x1="-36597.13918545329%" y1="76576.70607297229%" x2="-36565.667160724755%" y2="76526.07507495258%" gradientUnits="objectBoundingBox"><stop offset="0" stop-color="#98D6FA" stop-opacity="1" /><stop offset="1" stop-color="#47B0F1" stop-opacity="1" /></linearGradient><linearGradient id="linear_12" x1="-71714.00930565731%" y1="93422.72783986409%" x2="-71711.55924475487%" y2="93407.9036419955%" gradientUnits="objectBoundingBox"><stop offset="0" stop-color="#98D6FA" stop-opacity="1" /><stop offset="1" stop-color="#47B0F1" stop-opacity="1" /></linearGradient><linearGradient id="linear_13" x1="-42881.72727272727%" y1="89115.22727272726%" x2="-42609.74452616704%" y2="89020.23329874483%" gradientUnits="objectBoundingBox"><stop offset="0" stop-color="#98D6FA" stop-opacity="1" /><stop offset="1" stop-color="#47B0F1" stop-opacity="1" /></linearGradient><linearGradient id="linear_14" x1="-21162.76666666667%" y1="93538.59708117558%" x2="-21124.766666666666%" y2="93573.09839262893%" gradientUnits="objectBoundingBox"><stop offset="0" stop-color="#98D6FA" stop-opacity="1" /><stop offset="1" stop-color="#47B0F1" stop-opacity="1" /></linearGradient><linearGradient id="linear_15" x1="-20352.575532441806%" y1="96002.81452218756%" x2="-20392.575532441806%" y2="96088.57273229852%" gradientUnits="objectBoundingBox"><stop offset="0" stop-color="#98D6FA" stop-opacity="1" /><stop offset="1" stop-color="#47B0F1" stop-opacity="1" /></linearGradient><linearGradient id="linear_16" x1="-20360.70374015748%" y1="95224.48726208278%" x2="-20304.703740157478%" y2="95265.93558196735%" gradientUnits="objectBoundingBox"><stop offset="0" stop-color="#98D6FA" stop-opacity="1" /><stop offset="1" stop-color="#47B0F1" stop-opacity="1" /></linearGradient><linearGradient id="linear_17" x1="-20497.188498402556%" y1="95971.50989110423%" x2="-20412.188498402553%" y2="96009.8734428187%" gradientUnits="objectBoundingBox"><stop offset="0" stop-color="#98D6FA" stop-opacity="1" /><stop offset="1" stop-color="#47B0F1" stop-opacity="1" /></linearGradient><linearGradient id="linear_18" x1="-20704.09836065574%" y1="95512.40169220205%" x2="-20619.09836065574%" y2="95548.44632915387%" gradientUnits="objectBoundingBox"><stop offset="0" stop-color="#98D6FA" stop-opacity="1" /><stop offset="1" stop-color="#47B0F1" stop-opacity="1" /></linearGradient><linearGradient id="linear_19" x1="-20288.473684210527%" y1="96981.2119314338%" x2="-20203.473684210527%" y2="97016.39623948994%" gradientUnits="objectBoundingBox"><stop offset="0" stop-color="#98D6FA" stop-opacity="1" /><stop offset="1" stop-color="#47B0F1" stop-opacity="1" /></linearGradient><linearGradient id="linear_20" x1="-19791.83510525824%" y1="97290.60711875814%" x2="-19763.832002855368%" y2="97202.6721119713%" gradientUnits="objectBoundingBox"><stop offset="0" stop-color="#98D6FA" stop-opacity="1" /><stop offset="1" stop-color="#47B0F1" stop-opacity="1" /></linearGradient><linearGradient id="linear_21" x1="-19605.326947239657%" y1="94976.26150716444%" x2="-19600.31786096435%" y2="94939.4187913647%" gradientUnits="objectBoundingBox"><stop offset="0" stop-color="#98D6FA" stop-opacity="1" /><stop offset="1" stop-color="#47B0F1" stop-opacity="1" /></linearGradient><linearGradient id="linear_22" x1="-19014.30018624322%" y1="94819.55286621765%" x2="-19012.30024959321%" y2="94793.8681890177%" gradientUnits="objectBoundingBox"><stop offset="0" stop-color="#98D6FA" stop-opacity="1" /><stop offset="1" stop-color="#47B0F1" stop-opacity="1" /></linearGradient><linearGradient id="linear_23" x1="-19707.136671164004%" y1="95119.72496164643%" x2="-19701.138371589866%" y2="95077.42901842538%" gradientUnits="objectBoundingBox"><stop offset="0" stop-color="#98D6FA" stop-opacity="1" /><stop offset="1" stop-color="#47B0F1" stop-opacity="1" /></linearGradient><linearGradient id="linear_24" x1="-20868.337500000005%" y1="99296.60415377998%" x2="-20755.33750000001%" y2="99296.60415377998%" gradientUnits="objectBoundingBox"><stop offset="0" stop-color="#98D6FA" stop-opacity="1" /><stop offset="1" stop-color="#47B0F1" stop-opacity="1" /></linearGradient><linearGradient id="linear_25" x1="38324.68274090081%" y1="77703.0243663823%" x2="38405.063312710205%" y2="77714.15670003364%" gradientUnits="objectBoundingBox"><stop offset="0" stop-color="#98D6FA" stop-opacity="1" /><stop offset="1" stop-color="#47B0F1" stop-opacity="1" /></linearGradient><linearGradient id="linear_26" x1="-191.9329441064808%" y1="-1300.2464638303873%" x2="-203.01993003054176%" y2="-1299.4117742365684%" gradientUnits="objectBoundingBox"><stop offset="0.03" stop-color="#AFDEF9" stop-opacity="1" /><stop offset="1" stop-color="#7CC9F9" stop-opacity="1" /></linearGradient><linearGradient id="linear_27" x1="-483.5244454723146%" y1="-699.8014908396393%" x2="-429.5255226997505%" y2="-675.8066081234499%" gradientUnits="objectBoundingBox"><stop offset="0" stop-color="#98D6FA" stop-opacity="1" /><stop offset="1" stop-color="#47B0F1" stop-opacity="1" /></linearGradient><linearGradient id="linear_28" x1="-52078.607070068145%" y1="108629.75609756104%" x2="-52071.530828220886%" y2="108627.27965947347%" gradientUnits="objectBoundingBox"><stop offset="0.03" stop-color="#AFDEF9" stop-opacity="1" /><stop offset="1" stop-color="#7CC9F9" stop-opacity="1" /></linearGradient><linearGradient id="linear_29" x1="-860.9309037446246%" y1="-625.7486386405544%" x2="-839.9302372286677%" y2="-568.748825863384%" gradientUnits="objectBoundingBox"><stop offset="0" stop-color="#98D6FA" stop-opacity="1" /><stop offset="1" stop-color="#47B0F1" stop-opacity="1" /></linearGradient><linearGradient id="linear_30" x1="-1369.1300675675682%" y1="-814.1427826993228%" x2="-1352.1204954954974%" y2="-821.1427826993278%" gradientUnits="objectBoundingBox"><stop offset="0.03" stop-color="#AFDEF9" stop-opacity="1" /><stop offset="1" stop-color="#7CC9F9" stop-opacity="1" /></linearGradient><linearGradient id="linear_31" x1="26571.49475785608%" y1="94794.52424333792%" x2="26669.258247433896%" y2="94794.52424333792%" gradientUnits="objectBoundingBox"><stop offset="0" stop-color="#F5DDA7" stop-opacity="1" /><stop offset="1" stop-color="#FA9A41" stop-opacity="1" /></linearGradient><linearGradient id="linear_32" x1="-430.64663343396774%" y1="-1507.0313517028228%" x2="-517.6160921154258%" y2="-1507.0313517028228%" gradientUnits="objectBoundingBox"><stop offset="0" stop-color="#1D181C" stop-opacity="1" /><stop offset="0.3" stop-color="#2C2422" stop-opacity="1" /><stop offset="0.5" stop-color="#42352C" stop-opacity="1" /><stop offset="0.7" stop-color="#57352C" stop-opacity="1" /><stop offset="1" stop-color="#923629" stop-opacity="1" /></linearGradient><linearGradient id="linear_33" x1="-341.30335878061715%" y1="-2239.5882724938283%" x2="-428.30041926842443%" y2="-2239.5882724938283%" gradientUnits="objectBoundingBox"><stop offset="0" stop-color="#1D181C" stop-opacity="1" /><stop offset="0.3" stop-color="#2C2422" stop-opacity="1" /><stop offset="0.5" stop-color="#42352C" stop-opacity="1" /><stop offset="0.7" stop-color="#57352C" stop-opacity="1" /><stop offset="1" stop-color="#923629" stop-opacity="1" /></linearGradient><linearGradient id="linear_34" x1="-586.2737268056339%" y1="-1174.9660506889372%" x2="-686.2728779900984%" y2="-1174.9660506889372%" gradientUnits="objectBoundingBox"><stop offset="0" stop-color="#FFB859" stop-opacity="1" /><stop offset="1" stop-color="#F97B61" stop-opacity="1" /></linearGradient><linearGradient id="linear_35" x1="-428.81075008976933%" y1="-1339.4299908580376%" x2="-528.8136180570466%" y2="-1339.4299908580376%" gradientUnits="objectBoundingBox"><stop offset="0" stop-color="#FFB859" stop-opacity="1" /><stop offset="1" stop-color="#F97B61" stop-opacity="1" /></linearGradient></defs><g opacity="1" transform="translate(0 0)  rotate(0 512 512)"><mask id="bg-mask-0" fill="white"><use xlink:href="#path_0"></use></mask><g mask="url(#bg-mask-0)" ><g opacity="1" transform="translate(0 0)  rotate(0 512 512)"><g opacity="1" transform="translate(0 0)  rotate(0 512 512)"><g opacity="1" transform="translate(0 0)  rotate(0 512 512)"><path id="矩形" fill-rule="evenodd" style="fill:#FFFFFF" transform="translate(0 0)  rotate(0 512 512)" opacity="0" d="M0,1024L1024,1024L1024,0L0,0L0,1024Z " /><g opacity="1" transform="translate(62 125.06127715710409)  rotate(0 465 416.46936142144796)"><path id="路径-58" fill-rule="evenodd" style="fill:#47B0F1" transform="translate(0.00015584222433062678 0)  rotate(0 449.99919719279444 354.7709607683315)" opacity="0.05" d="M98.4,178.45C-42.82,208.09 7.12,423.61 14.8,456.71C22.47,489.8 46.11,632.06 151,676.94C368.19,751.12 730.88,679 787,653.84C871.28,620.47 924.86,544.03 888.35,539.56C851.84,535.09 800.21,494.91 850.91,450.18C901.61,405.45 895.59,287.32 888.35,178.45C842.53,-73.37 663.31,10.94 643.47,23.94C623.63,36.94 564.56,80.53 513.59,76.54C462.62,72.55 447.15,62.65 385.1,122.99C323.05,183.33 239.62,148.81 98.4,178.45Z " /><path id="形状结合" fill-rule="evenodd" fill="url(#linear_0)" transform="translate(8 173.9387228428959)  rotate(0 62 23)" opacity="0.1" d="M124,8.5L124,7.5C124,3.36 120.64,0 116.5,0L37.5,0C33.36,0 30,3.36 30,7.5L30,8.5C30,12.06 32.51,15.14 36,15.85L36,16L39.24,16C43.01,16.13 46,19.23 46,23L46,23.24C45.87,27.01 42.77,30 39,30L7.5,30C3.36,30 0,33.36 0,37.5L0,38.5C0,42.64 3.36,46 7.5,46L86.5,46C90.64,46 94,42.64 94,38.5L94,37.5C94,33.94 91.49,30.87 88,30.15L88,30L84.76,30C80.99,29.87 78,26.77 78,23L78,22.76C78.13,18.99 81.23,16 85,16L116.5,16C120.64,16 124,12.64 124,8.5Z " /><path id="形状结合-2" fill-rule="evenodd" fill="url(#linear_1)" transform="translate(708 3.9387228428959133)  rotate(0 62 23)" opacity="0.1" d="M39.24,16C43.01,16.13 46,19.23 46,23L46,23.24C45.87,27.01 42.77,30 39,30L7.5,30C3.36,30 0,33.36 0,37.5L0,38.5C0,42.64 3.36,46 7.5,46L86.5,46C90.64,46 94,42.64 94,38.5L94,37.5C94,33.94 91.49,30.87 88,30.15L88,30L84.76,30C80.99,29.87 78,26.77 78,23L78,22.76C78.13,18.99 81.23,16 85,16L116.5,16C120.64,16 124,12.64 124,8.5L124,7.5C124,3.36 120.64,0 116.5,0L37.5,0C33.36,0 30,3.36 30,7.5L30,8.5C30,12.06 32.51,15.14 36,15.85L36,16L39.24,16Z " /><path id="形状结合-3" fill-rule="evenodd" fill="url(#linear_2)" transform="translate(0 586.9387228428959)  rotate(0 465 123)" opacity="1" d="M784.3,28C701.78,10.79 583.62,0 452.52,0C202.37,0 0,39 0,87C0,123.72 118.2,155.13 285.59,167.89C305.83,212.24 409.35,246 534,246C673.18,246 786,203.91 786,152C786,149.9 785.82,147.81 785.45,145.75C801.2,142.43 815.61,138.88 828.61,135.13C887.55,127.8 930,107.23 930,83C930,53 865.06,28.65 784.3,28Z " /><g opacity="1" transform="translate(587.1700000000001 36.82996579528509)  rotate(0 104.77499999999998 32.379378523805414)"><path id="路径" fill-rule="evenodd" fill="url(#linear_3)" transform="translate(0 39.18500650284716)  rotate(0 37.435 12.786875272381835)" opacity="1" d="M37.44,25.56C42.78,10.63 60.15,3.55 74.87,5.63C64.03,-1.16 45.9,-2.88 37.44,7.45L37.44,7.36C29,-3.06 10.93,-1.25 0,5.54C14.74,3.36 32.11,10.47 37.44,25.47L37.44,25.57L37.44,25.56Z " /><path id="路径-2" fill-rule="evenodd" fill="url(#linear_4)" transform="translate(94.88999999999987 34.44)  rotate(0 25.970000000000027 8.88937852380542)" opacity="1" d="M25.94,17.74C29.7,7.38 41.73,2.48 51.94,3.92C44.38,-0.82 31.81,-1.98 25.94,5.18L25.94,5.12C20.07,-2.14 7.57,-0.85 0,3.86C10.21,2.36 22.24,7.25 25.94,17.67L25.94,17.78L25.94,17.74Z " /><path id="路径-3" fill-rule="evenodd" fill="url(#linear_5)" transform="translate(60.069999999999936 0)  rotate(0 26 8.869378523805409)" opacity="1" d="M52,3.93C44.43,-0.82 31.87,-1.97 26,5.18L26,5.12C20.08,-2.14 7.58,-0.85 0,3.86C10.27,2.36 22.3,7.25 26,17.68L26,17.74C29.76,7.38 41.78,2.48 52,3.93Z " /><path id="路径-4" fill-rule="evenodd" fill="url(#linear_6)" transform="translate(173.54999999999995 45.9325059140923)  rotate(0 18 6.1231255667592706)" opacity="1" d="M18 3.54C22.08 -1.46 30.78 -0.59 36 2.67C28.91 1.67 20.57 5.07 18 12.25C15.44 5.02 7.1 1.62 0 2.67C5.25 -0.59 13.91 -1.47 18 3.54Z" /></g></g><g opacity="1" transform="translate(81.87 337.77)  rotate(0 347.995 204.66000000000008)"><path id="_4" fill-rule="evenodd" fill="url(#linear_7)" transform="translate(0 114.91000000000008)  rotate(0 89.995 147.20500000000007)" opacity="1" d="M155.49 294.41L115.13 294.41L115.13 220.71L37.61 220.71C23.97 220.71 13.1 214.34 5 201.61C1.67 196.34 0 189.46 0 180.97C0 178.39 0.2 175.81 0.58 173.25L27.58 0L67.56 0L43.25 159.55C42.76 162.55 42.42 165.58 42.25 168.62C42.25 172.73 44.11 176.34 47.84 179.43C50.67 181.61 54.34 182.7 58.84 182.7L115.13 182.7L115.13 0L155.49 0L155.49 182.71L179.99 182.71L179.99 220.71L155.49 220.71L155.49 294.41Z" /><g opacity="1" transform="translate(152.17225525329917 0)  rotate(0 198.32493926357753 157.0920091537834)"><path id="椭圆形" fill-rule="evenodd" fill="url(#linear_8)" transform="translate(107.58306537074833 80.81639061172876)  rotate(-75 80 124)" opacity="1" d="M80,0C35.82,0 0,55.52 0,124C0,192.48 35.82,248 80,248C124.18,248 160,192.48 160,124C160,55.52 124.18,0 80,0Z " /><path id="椭圆形备份-7" fill-rule="evenodd" fill="url(#linear_9)" transform="translate(107.16036279125916 -10.927371476084772)  rotate(-75 90 180)" opacity="1" d="M90,0C40.29,0 0,80.59 0,180C0,279.41 40.29,360 90,360C139.71,360 180,279.41 180,180C180,80.59 139.71,0 90,0Z " /><path id="椭圆形备份-8" fill-rule="evenodd" fill="url(#linear_10)" transform="translate(109.48951573589596 -19.617116153279028)  rotate(-75 90 180)" opacity="1" d="M90,0C40.29,0 0,80.59 0,180C0,279.41 40.29,360 90,360C139.71,360 180,279.41 180,180C180,80.59 139.71,0 90,0Z " /><path id="椭圆形-2" fill-rule="evenodd" fill="url(#linear_11)" transform="translate(83.72578972400464 39.965644167086566)  rotate(0 122.14077388938671 85.71862847608725)" opacity="1" d="M241.77,129.26C255.31,78.65 212.71,23.26 146.56,5.49C80.41,-12.28 15.79,14.49 2.22,65.08C-11.35,115.67 39,142.26 105.15,160.01C171.3,177.74 228.23,179.87 241.77,129.26Z " /><path id="矩形-2" fill-rule="evenodd" fill="url(#linear_12)" transform="translate(218.81670026698242 10.490323491329832)  rotate(0 12.246044479718336 32.046002648918034)" opacity="1" d="M20.79 0.17C23.45 0.89 25.03 3.63 24.32 6.29L9.83 60.39C9.49 61.67 8.65 62.76 7.5 63.42C6.35 64.09 4.98 64.26 3.7 63.92C1.04 63.2 -0.54 60.46 0.17 57.8L14.66 3.74C15 2.45 15.83 1.35 16.98 0.68C18.13 0.01 19.5 -0.17 20.79 0.17Z" /><path id="椭圆形-3" fill-rule="evenodd" fill="url(#linear_13)" transform="translate(228.18774474670084 0)  rotate(0 11 11)" opacity="1" d="M11,0C4.92,0 0,4.92 0,11C0,17.08 4.92,22 11,22C17.08,22 22,17.08 22,11C22,4.92 17.08,0 11,0Z " /></g><path id="_3" fill-rule="evenodd" fill="url(#linear_14)" transform="translate(515.99 101.18999999999994)  rotate(0 90 148.69000000000003)" opacity="1" d="M118.57,124.21L38.42,124.21L38.42,162.63L120.72,162.63C133.07,162.63 139.25,168.35 139.25,179.79L139.25,244.54C139.25,254.16 132.81,258.97 119.94,258.97L56.36,258.97C47.39,258.97 41.48,254.42 38.62,245.32L0,245.32C0.65,256.75 3.06,265.92 7.22,272.81C16.84,289.19 32.9,297.38 55.39,297.38L133.59,297.38C145.42,297.38 156.47,292.44 166.74,282.56C175.58,273.98 180,262.86 180,249.21L180,169.06C180,161.63 177.08,152.92 171.23,142.92C176.95,133.31 179.81,124.01 179.81,115.04L179.81,48.36C179.81,34.06 175.26,22.49 166.16,13.65C156.67,4.55 143.21,0 125.79,0L52.66,0C37.84,0 25.88,4.22 16.78,12.67C5.99,22.68 0.59,34 0.59,46.61C0.59,48.82 0.72,51.42 0.98,54.41L39.98,54.41C42.45,43.74 48.3,38.41 57.53,38.41L119.94,38.41C132.68,38.41 139.05,44.78 139.05,57.52L139.05,109.59C139.06,119.34 132.23,124.21 118.57,124.21Z " /></g><g opacity="1" transform="translate(35 758)  rotate(0 52 32.000499021809844)"><path id="路径-38" fill-rule="evenodd" fill="url(#linear_15)" transform="translate(20.000000000000014 13.393879495887177)  rotate(0 20.19 18.128060252056343)" opacity="1" d="M40.38,36.13C40.12,12.63 24.14,-2.06 0,0.24C17.83,1.95 25.3,13.91 22.4,36.13C29.39,36.3 35.38,36.3 40.38,36.13Z " /><path id="路径-39" fill-rule="evenodd" fill="url(#linear_16)" transform="translate(36.73000000000002 0)  rotate(0 20.32 25.002702229807994)" opacity="1" d="M40.64,49.65C35.78,16.44 20.82,6.57 0,0C16.31,10.67 22.1,27.22 17.39,49.65C25.13,50.12 32.9,50.12 40.64,49.65Z " /><path id="路径-40" fill-rule="evenodd" fill="url(#linear_17)" transform="translate(57.05000000000001 13.28546401326048)  rotate(0 23.475 18.35726799336976)" opacity="1" d="M46.95,0.1C30.84,-0.3 12.86,-1.38 0,36.71C10.9,36.36 18.91,36.36 24.02,36.71C21.93,15.41 29.58,3.21 46.95,0.1Z " /><path id="椭圆形-4" fill-rule="evenodd" fill="url(#linear_18)" transform="translate(0 20)  rotate(0 30.5 22.000499021809844)" opacity="1" d="M61,28.61C61,12.81 47.34,0 30.5,0C13.66,0 0,12.81 0,28.61C0,44.41 14.57,44 31.41,44C48.26,44 61,44.41 61,28.61Z " /><path id="椭圆形备份-6" fill-rule="evenodd" fill="url(#linear_19)" transform="translate(45 37)  rotate(0 19 13.50033654895617)" opacity="1" d="M38,17.56C38,7.87 29.49,0 19,0C8.51,0 0,7.86 0,17.56C0,27.26 9.07,27 19.57,27C30.06,27 38,27.25 38,17.56Z " /></g><g opacity="1" transform="translate(169 713.95)  rotate(0 39.999999999999986 33.52772727272719)"><path id="路径-43" fill-rule="evenodd" fill="url(#linear_20)" transform="translate(18.17149043680695 38.10542984670508)  rotate(0 13.073551449157762 12.787285076647436)" opacity="1" d="M25.74,19.08C17.83,-3.74 7.37,0.08 2.47,0.47C-3.34,3.04 1.75,6.57 11.03,9.57C19.16,12.6 24.06,17.93 25.74,25.57C26.28,23.45 26.28,21.21 25.74,19.08Z " /><path id="路径-44" fill-rule="evenodd" fill="url(#linear_21)" transform="translate(24.35890981110049 8.973926624792284)  rotate(0 11.424239243410824 27.95803668760385)" opacity="1" d="M21.64,53.37C24.15,45.19 22.03,32.53 21.64,30.37C15.64,-1.07 7.64,-0.32 3.3,0.12C-0.94,1.98 -1.26,10.19 3.3,15.92C9.52,24.34 15.07,37.68 19.96,55.92C20.77,55.26 21.35,54.37 21.64,53.37Z " /><path id="路径-45" fill-rule="evenodd" fill="url(#linear_22)" transform="translate(38.77048331483974 0)  rotate(0 8.725276373083332 30.572702700782486)" opacity="1" d="M10.13,60.72C12.84,52.29 15.43,45.57 16.92,34.29C19.36,6.34 12.9,0.73 7.55,0C-5.64,0.36 1.59,16.03 5.83,28.77C8.6,41.94 8.89,52.61 6.68,60.77C7.78,61.29 9.05,61.27 10.13,60.72Z " /><path id="路径-46" fill-rule="evenodd" fill="url(#linear_23)" transform="translate(47.88302280130296 11.041309733017442)  rotate(0 12.433523714208476 26.44934513349125)" opacity="1" d="M2.6,51.05C2.63,49.22 5.3,41.45 9.37,36.13C21.72,21.39 23.87,11.72 24.87,7.2C24.9,-3.3 15.31,-0.15 12.79,3.2C3.45,13.25 -0.78,29.82 0.12,52.9C1.79,52.9 2.61,52.29 2.6,51.05Z " /><path id="路径-47" fill-rule="evenodd" fill="url(#linear_24)" transform="translate(0 50.05673297700844)  rotate(0 39.999999999999986 8.499360784222972)" opacity="1" d="M80,16.95C79.03,-0.13 66.1,-0.27 61.72,0.07C57.83,-0.57 48.89,3.38 47.46,9.54C44.32,5.64 38.85,7.34 37.14,9.54C29.29,3 16.72,10.74 15.29,12.54C14.34,13.75 9.24,15.21 0,16.93C49.81,17.01 76.47,17.02 80,16.95Z " /></g><g opacity="1" transform="translate(736.375901241327 586.0031824266764)  rotate(0 135.64353086081798 122.8881757570399)"><path id="路径-61" fill-rule="evenodd" fill="url(#linear_25)" transform="translate(53.62409875867297 72.48042839538402)  rotate(0 108.83148148148149 85.94833822643693)" opacity="1" d="M101,13.08C81.75,36.23 81.75,36.23 81.75,36.23C66.47,41.09 58.83,48.79 58.83,59.34C46.47,86.85 46.47,86.85 46.47,86.85C38.06,88.34 25.89,92.23 9.94,98.52C0,170.52 0,170.52 0,170.52C52.05,176.02 88.41,165.05 109.09,137.61C115.94,111.04 128.56,100.81 146.93,106.93C174.48,116.1 185.48,100.07 186.59,85.93C187.33,76.49 194.12,63.96 206.96,48.32C211.89,46.06 215.31,40.42 217.2,31.4C220.53,2.3 205.87,-4.91 173.2,9.76C137.33,6.68 137.33,6.68 137.33,6.68C123.26,-4 111.15,-1.87 101,13.08Z " /><path id="形状结合-4" fill-rule="evenodd" fill="url(#linear_26)" transform="translate(65.62409875867297 95.55247873531403)  rotate(0 81.37 57.15716941900479)" opacity="1" d="M112.48 35.33L72.24 62.19L72.35 62.04C71.24 44.75 71.68 32.68 73.69 25.83C71 29.43 68.14 55.21 69.69 63.83L32.69 88.54L33.03 88.12C33.03 88.12 31.13 73.85 32.81 66.65C31.14 68.65 30.03 83.65 30.51 89.99L0 110.44L3.87 114.31L35.41 91.98C43.93 96.98 55.62 97.77 61.27 97.25C50.83 96.29 43.2 93.89 38.38 90.05C37.61 90.68 36.77 91.22 35.88 91.65L124.7 28.76C124.5 28.98 124.32 29.21 124.14 29.44C137.3 31.3 149.11 30.51 159.58 27.06C158.74 25.39 144.83 31.9 126.46 27.51L162.74 1.79L114.46 34.01C116.92 21.1 119.86 10.63 123.28 2.61C128.35 -9.26 112.69 22.4 112.48 35.33Z M80.23 60.3843C79.54 61.1743 78.8 61.9043 78.01 62.5943C94 75.2143 111.13 80.1843 121.4 78.6543C110.86 78.9543 97.14 72.8643 80.23 60.3843Z " /><path id="路径-65" fill-rule="evenodd" fill="url(#linear_27)" transform="translate(32.86280188358876 0)  rotate(0 101.79203061422868 108.43312012709362)" opacity="1" d="M81.97,39.45C81.27,65.45 73.59,80.11 58.92,83.45C25.54,91.69 37.16,111.55 37.16,123.69C37.16,135.83 35.03,145.53 19.16,161.41C-2.78,195.7 -23.1,227.34 62.22,213.57C119.1,204.39 145.18,189.27 140.45,168.19C131.02,154.47 137.06,143.87 158.56,136.4C190.81,125.15 197.16,97.84 195.13,83.4C193.1,68.96 197.16,53.2 203.35,29.63C205.66,-3.27 190.73,-8.77 158.56,13.12C146.91,26.32 135.38,31.83 123.97,29.65C98.28,23.12 84.28,26.39 81.97,39.45Z " /><path id="形状结合-5" fill-rule="evenodd" fill="url(#linear_28)" transform="translate(68.99409875867309 30.586817573323515)  rotate(0 71.14500000000004 87.12499999999994)" opacity="1" d="M69.7,85.08C63.7,76.6 60.7,65.45 60.7,51.63C59.32,55.92 59.29,75.63 67.86,87.89L41.25,121.81C39.57,119.2 35.37,111.81 35.37,103.65C34.48,109.3 34.37,116.87 39.27,124.33L0,174.25L6.23,174.25L44.23,123.7C62.61,131.55 72.92,128.26 78.03,125.96C68.07,128.4 57.5,126.73 46.32,120.96L75.18,82.52C75.03,82.82 74.86,83.12 74.68,83.44C93.89,90.17 113.84,90.96 123.05,86.17C113.18,89.89 97.52,88.04 76.05,80.62L76.49,80.77L108.63,37.88L108.45,38.39C122.58,39.26 133.86,34.77 142.29,24.91C140.96,23.61 131.94,36.71 110.15,35.91L137.07,0L101.63,45L101.56,44.83C97.72,35.91 96.9,25.98 99.21,16.55L99.29,16.24C96.96,23.51 92.48,32.18 99.9,47.17L69.9,85.35L69.7,85.08Z " /><path id="路径-96" fill-rule="evenodd" fill="url(#linear_29)" transform="translate(0 2.8355535480782237)  rotate(0 55.328243944877386 121.47039898300079)" opacity="1" d="M100.78,45.11C94.48,38.65 88.15,27.53 81.79,11.75C69.37,-5.51 58.26,-3.76 48.44,17.01C43.68,34.95 51.2,46.36 26.62,54.51C10.24,59.95 7.76,71.33 19.18,88.66C23.96,99.56 20.44,106.53 8.61,109.57C8.61,109.57 8.61,109.57 12.87,145.79C17.96,157.36 17.96,165.1 12.87,168.99C5.25,174.83 -9.41,192.34 8.61,226.38C26.63,260.42 69.07,233.98 75.43,217.98C81.79,201.98 69.07,179.93 75.43,168.98C81.79,158.03 118.89,154.27 108.98,121.46C100.73,108.04 89.25,104.16 100.78,81.3C112.31,58.44 115.24,67.63 100.78,45.11Z " /><path id="形状结合-6" fill-rule="evenodd" fill="url(#linear_30)" transform="translate(18.974098758672994 44.346817573323506)  rotate(0 35.51999999999998 95.94999999999999)" opacity="1" d="M24.09 109.66L15.39 153.31L15.34 152.77C15.34 152.77 3.89 144.03 0 137.77C0.25 140.38 10 151.72 14.87 155.9L7.69 191.9L13.16 191.9L19.65 153.81C29.24 151.34 38.04 143.61 41.65 139.24C33.59 145.95 26.5 149.65 20.38 150.35C20.28 151.33 20.06 152.3 19.74 153.24L38.07 45.97C38.07 46.26 38.12 46.56 38.16 46.85C48.78 38.85 56.57 29.93 61.53 20.1C59.76 19.52 54.53 33.95 38.44 43.83L45.92 0L34.57 56.91C27.17 46.05 21.84 36.57 18.57 28.48C13.76 16.48 25.08 49.96 34.07 59.25L24.65 106.7L24.65 106.51C11.64 95.07 3.43 86.22 0 79.96C0.64 84.41 16.84 104.66 24.09 109.66Z M29.04 99.76C29.11 100.81 29.11 101.85 29.04 102.9C49.22 100.53 64.86 91.92 71.04 83.57C63.8 91.24 49.8 96.64 29.04 99.76Z " /></g><g opacity="1" transform="translate(369.5597216616253 638.8395384725056)  rotate(0 142.9654403538231 128.79203572163038)"><path id="路径-5" fill-rule="evenodd" fill="url(#linear_31)" transform="translate(28.473264426251035 156.38087394493607)  rotate(0 128.72880814069757 50.60159874916235)" opacity="0.4" d="M27.35,61.57C13.71,69.11 19.84,75.71 26.78,81.78C37.05,90.78 113.71,112.41 196.78,94C274.29,76.84 262.61,46 242.69,32C226.69,20.76 156.69,-4.74 76.75,0.77C28.63,4.07 7.97,12.33 3.96,18.7C-2.61,29.25 -3.52,38.49 21.35,46.28C43.69,53.28 34.79,57.46 27.35,61.57Z " /><path id="路径-6" fill-rule="evenodd" style="fill:#EBB0B0" transform="translate(92.33119651823665 7.514209237355999)  rotate(0 31.589540910068962 32.83824599194861)" opacity="1" d="M47.46,24.8C46.5,19.82 37.95,-3.94 18.13,0.57C-1.69,5.08 -5.36,26.83 7.62,40.86C20.6,54.89 27.89,62.6 32.45,60.43C37.01,58.26 42.23,62.65 45.31,65.43C48.39,68.21 59.87,46.91 59.87,46.91L63.18,42.81L61.11,39.59C54.66,36.59 48.42,29.78 47.46,24.8Z " /><path id="路径-7" fill-rule="evenodd" style="fill:#131322" transform="translate(74.60442436138976 0)  rotate(0 34.35103879697314 25.18914462991347)" opacity="1" d="M59.1331 46.517C57.8177 47.7278 56.7665 48.6953 56.33 49.25C54.72 51.3 49.06 50 47.83 49.68C47.96 49.46 48 48.49 47.44 45.17C46.47 39.44 39.41 39.46 38.75 41.71C38.383 42.9613 39.1571 43.962 39.7069 44.6727C40.1457 45.24 40.4415 45.6224 39.9 45.8L36.52 46.75C28.42 37.69 28.42 39.75 28.42 39.75C25.8413 39.7975 24.2157 40.0842 22.9162 40.3134C20.1088 40.8086 18.824 41.0352 12.74 38C3.84 33.56 -7.52 21.68 6.84 9.4C10.43 6.34 16.02 3.47 24.48 0.93C32.94 -1.61 51.88 0.82 59.72 11.08C67.56 21.34 66.44 28.75 68.48 33.15C70.028 36.4889 63.2724 42.707 59.1331 46.517ZM47.83 49.68C47.74 49.85 47.6 49.62 47.6 49.62C47.6 49.62 47.68 49.64 47.83 49.68Z" /><path id="路径-8" fill-rule="evenodd" style="fill:#333333" transform="translate(0 188.1204615274944)  rotate(0 25.887115717788987 10.706066617405043)" opacity="1" d="M42.77,0C42.77,0 26.51,1.91 15.37,4.16C4.23,6.41 -2.48,12.65 0.86,17.31C4.2,21.97 22.24,21.48 24.86,21.31C27.48,21.14 36.8,20.83 42.16,20.31C46.4,19.9 51.65,13.58 51.77,10.2C51.89,6.82 49.26,5.09 46.33,0.09L42.77,0Z " /><path id="Fill-1706" fill-rule="evenodd" fill="url(#linear_32)" transform="translate(27.440278338374696 95.0838132009128)  rotate(0 71.21499999999997 55.27832416329079)" opacity="1" d="M39.89,0.21C8.42,3.38 0,98.8 0,98.8L18,101.73L48.85,42.39L103,110.56L142.43,95.4L116.46,55.97C104.33,38.11 74.29,-3.27 39.89,0.21Z " /><path id="Fill-1708" fill-rule="evenodd" fill="url(#linear_33)" transform="translate(53.67893761041273 149.96046152749432)  rotate(0 93.64816413701544 38.43027803684714)" opacity="1" d="M144.39,29.07C144.39,29.07 85.39,29.66 72.64,30.85C59.89,32.04 0.24,25.2 0,52.2C-0.24,79.2 31.76,76.79 80.94,76.48C130.75,76.18 150.02,78.26 164.85,75C191.78,69.09 190.05,27 182.34,0L144.39,29.07Z " /><path id="Fill-1709" fill-rule="evenodd" fill="url(#linear_34)" transform="translate(120.41925508256077 43.38895200951606)  rotate(0 60.275511627906894 68.69426097611506)" opacity="1" d="M4.42,77.82C15.09,96.79 35.75,136.12 35.75,136.12C104.55,142.35 120.55,123.58 120.55,123.58C120.55,123.58 118.81,74.08 102.37,45.18C75.07,-2.8 27.68,0.03 27.68,0.03C27.68,0.03 32.93,8.21 19.3,18.21C12.13,24.66 8.86,27.85 8.86,27.85C-1.22,48.52 -2.7,65.17 4.42,77.82Z " /><path id="矩形-3" fill-rule="evenodd" style="fill:#000000" transform="translate(5.070278338374692 117.68046152749434)  rotate(0 16.97999999999999 7.605000000000018)" opacity="1" d="M32.77 15.21L0 3.28L1.19 0L33.96 11.93L32.77 15.21Z" /><path id="路径-50备份" fill-rule="evenodd" style="fill:#EFBA9E" transform="translate(16.868514489978224 125.7640091738781)  rotate(0 13.930881924198246 6.2232261768081685)" opacity="1" d="M20.58,3.48C19.69,2.56 18.66,1.8 17.52,1.22C14.86,0.4 13.57,0.54 13.65,1.62C13.75,2.71 14.39,3.68 15.35,4.21L10.88,3.26L6.64,1.15C2.14,-0.96 -0.07,-0.16 0,3.54C0.91,7.69 5.34,12.28 14.12,11.97C16.2,11.3 19.04,11.46 22.63,12.45L27.86,7.11C25.56,5.91 23.14,4.7 20.58,3.48Z " /><path id="路径-3-2" fill-rule="evenodd" fill="url(#linear_35)" transform="translate(34.5602783383747 63.02575138256702)  rotate(0 72.36292465499997 60.99591994383883)" opacity="1" d="M0,82.72C42.25,105.16 67.79,117.89 76.61,120.91C93.73,125.28 100.86,115.82 112.73,102.16C128.41,82.02 143.84,36.75 144.64,25.96C145.44,15.17 140.65,5.22 130.22,0.44C115.54,-1.71 105.27,3.96 99.42,17.44L79.88,94.72L6.15,66.86L0,82.72Z " /></g></g></g></g></g></g></svg>