<svg xmlns="http://www.w3.org/2000/svg" xmlns:xlink="http://www.w3.org/1999/xlink" width="1024" height="1024" viewBox="0 0 1024 1024" fill="none"><defs><rect id="path_0" x="0" y="0" width="1024" height="1024" /><linearGradient id="linear_0" x1="-13.582350699999997%" y1="50%" x2="50%" y2="47.2031971%" gradientUnits="objectBoundingBox"><stop offset="0" stop-color="#98D6FA" stop-opacity="1" /><stop offset="1" stop-color="#47B0F1" stop-opacity="1" /></linearGradient><linearGradient id="linear_1" x1="-13.582350699999997%" y1="50%" x2="50%" y2="47.2031971%" gradientUnits="objectBoundingBox"><stop offset="0" stop-color="#98D6FA" stop-opacity="1" /><stop offset="1" stop-color="#47B0F1" stop-opacity="1" /></linearGradient><linearGradient id="linear_2" x1="-9.43689570931383e-14%" y1="-3.10559006%" x2="100%" y2="-3.10559006%" gradientUnits="objectBoundingBox"><stop offset="0" stop-color="#FFF5DE" stop-opacity="1" /><stop offset="1" stop-color="#FBD2AC" stop-opacity="1" /></linearGradient><linearGradient id="linear_3" x1="-13.582350699999997%" y1="50%" x2="50%" y2="47.6284444%" gradientUnits="objectBoundingBox"><stop offset="0" stop-color="#98D6FA" stop-opacity="1" /><stop offset="1" stop-color="#47B0F1" stop-opacity="1" /></linearGradient><linearGradient id="linear_4" x1="-13.582350699999997%" y1="50%" x2="50%" y2="47.629463%" gradientUnits="objectBoundingBox"><stop offset="0" stop-color="#98D6FA" stop-opacity="1" /><stop offset="1" stop-color="#47B0F1" stop-opacity="1" /></linearGradient><linearGradient id="linear_5" x1="-13.582350699999997%" y1="50%" x2="50%" y2="47.629463%" gradientUnits="objectBoundingBox"><stop offset="0" stop-color="#98D6FA" stop-opacity="1" /><stop offset="1" stop-color="#47B0F1" stop-opacity="1" /></linearGradient><linearGradient id="linear_6" x1="-13.582350699999997%" y1="50%" x2="50%" y2="47.6298828%" gradientUnits="objectBoundingBox"><stop offset="0" stop-color="#98D6FA" stop-opacity="1" /><stop offset="1" stop-color="#47B0F1" stop-opacity="1" /></linearGradient><linearGradient id="linear_7" x1="-13.582350699999997%" y1="50%" x2="50%" y2="43.4230204%" gradientUnits="objectBoundingBox"><stop offset="0" stop-color="#98D6FA" stop-opacity="1" /><stop offset="1" stop-color="#47B0F1" stop-opacity="1" /></linearGradient><linearGradient id="linear_8" x1="43.13989250000001%" y1="-6.451612899999999%" x2="60.33656359999999%" y2="0%" gradientUnits="objectBoundingBox"><stop offset="0.0315726754" stop-color="#AFDEF9" stop-opacity="1" /><stop offset="1" stop-color="#7CC9F9" stop-opacity="1" /></linearGradient><linearGradient id="linear_9" x1="43.13989250000001%" y1="-6.451612899999999%" x2="60.33656359999999%" y2="0%" gradientUnits="objectBoundingBox"><stop offset="0.0315726754" stop-color="#AFDEF9" stop-opacity="1" /><stop offset="1" stop-color="#7CC9F9" stop-opacity="1" /></linearGradient><linearGradient id="linear_10" x1="5.920258089999997%" y1="60.85714990000001%" x2="59.966368%" y2="37.0542203%" gradientUnits="objectBoundingBox"><stop offset="0" stop-color="#98D6FA" stop-opacity="1" /><stop offset="1" stop-color="#47B0F1" stop-opacity="1" /></linearGradient><linearGradient id="linear_11" x1="44.49263710000001%" y1="-6.451612899999999%" x2="58.29829660000001%" y2="0%" gradientUnits="objectBoundingBox"><stop offset="0.0315726754" stop-color="#AFDEF9" stop-opacity="1" /><stop offset="1" stop-color="#7CC9F9" stop-opacity="1" /></linearGradient><linearGradient id="linear_12" x1="28.4038852%" y1="87.0084871%" x2="50%" y2="30.481096299999997%" gradientUnits="objectBoundingBox"><stop offset="0" stop-color="#98D6FA" stop-opacity="1" /><stop offset="1" stop-color="#47B0F1" stop-opacity="1" /></linearGradient><linearGradient id="linear_13" x1="43.13989250000001%" y1="-6.451612899999999%" x2="60.33656359999999%" y2="0%" gradientUnits="objectBoundingBox"><stop offset="0.0315726754" stop-color="#AFDEF9" stop-opacity="1" /><stop offset="1" stop-color="#7CC9F9" stop-opacity="1" /></linearGradient><linearGradient id="linear_14" x1="43.13989250000001%" y1="-6.451612899999999%" x2="60.33656359999999%" y2="0%" gradientUnits="objectBoundingBox"><stop offset="0.0315726754" stop-color="#AFDEF9" stop-opacity="1" /><stop offset="1" stop-color="#7CC9F9" stop-opacity="1" /></linearGradient><linearGradient id="linear_15" x1="80.1766865%" y1="78.1244605%" x2="40.1612594%" y2="1.2035674499999982%" gradientUnits="objectBoundingBox"><stop offset="0" stop-color="#98D6FA" stop-opacity="1" /><stop offset="1" stop-color="#47B0F1" stop-opacity="1" /></linearGradient><linearGradient id="linear_16" x1="16.9636606%" y1="77.6033014%" x2="73.1106367%" y2="27.310414800000004%" gradientUnits="objectBoundingBox"><stop offset="0" stop-color="#98D6FA" stop-opacity="1" /><stop offset="1" stop-color="#47B0F1" stop-opacity="1" /></linearGradient><linearGradient id="linear_17" x1="0%" y1="66.87911599999998%" x2="84.977599%" y2="36.12556749999999%" gradientUnits="objectBoundingBox"><stop offset="0" stop-color="#98D6FA" stop-opacity="1" /><stop offset="1" stop-color="#47B0F1" stop-opacity="1" /></linearGradient><linearGradient id="linear_18" x1="0%" y1="64.3617284%" x2="84.977599%" y2="38.1948302%" gradientUnits="objectBoundingBox"><stop offset="0" stop-color="#98D6FA" stop-opacity="1" /><stop offset="1" stop-color="#47B0F1" stop-opacity="1" /></linearGradient><linearGradient id="linear_19" x1="0%" y1="63.9354617%" x2="84.977599%" y2="38.5452163%" gradientUnits="objectBoundingBox"><stop offset="0" stop-color="#98D6FA" stop-opacity="1" /><stop offset="1" stop-color="#47B0F1" stop-opacity="1" /></linearGradient><linearGradient id="linear_20" x1="45.14416130000001%" y1="7.105427357601002e-13%" x2="52.6925984%" y2="100%" gradientUnits="objectBoundingBox"><stop offset="0" stop-color="#98D6FA" stop-opacity="1" /><stop offset="1" stop-color="#47B0F1" stop-opacity="1" /></linearGradient><linearGradient id="linear_21" x1="27.474681%" y1="-10.553607900000001%" x2="69.1969346%" y2="40.8831165%" gradientUnits="objectBoundingBox"><stop offset="0" stop-color="#98D6FA" stop-opacity="1" /><stop offset="1" stop-color="#47B0F1" stop-opacity="1" /></linearGradient><linearGradient id="linear_22" x1="39.2633926%" y1="50%" x2="79.416262%" y2="46.2434292%" gradientUnits="objectBoundingBox"><stop offset="0" stop-color="#98D6FA" stop-opacity="1" /><stop offset="1" stop-color="#47B0F1" stop-opacity="1" /></linearGradient><linearGradient id="linear_23" x1="-13.582350699999996%" y1="50%" x2="77.13220140000001%" y2="50%" gradientUnits="objectBoundingBox"><stop offset="0" stop-color="#98D6FA" stop-opacity="1" /><stop offset="1" stop-color="#47B0F1" stop-opacity="1" /></linearGradient><linearGradient id="linear_24" x1="-3.552713678800501e-13%" y1="43.64389980000001%" x2="139.088738%" y2="77.276811%" gradientUnits="objectBoundingBox"><stop offset="0" stop-color="#98D6FA" stop-opacity="1" /><stop offset="1" stop-color="#47B0F1" stop-opacity="1" /></linearGradient><linearGradient id="linear_25" x1="37.8614727%" y1="126.911863%" x2="57.86514300000001%" y2="-136.97979300000003%" gradientUnits="objectBoundingBox"><stop offset="0" stop-color="#98D6FA" stop-opacity="0" /><stop offset="1" stop-color="#47B0F1" stop-opacity="1" /></linearGradient><linearGradient id="linear_26" x1="34.67394850000001%" y1="0%" x2="50%" y2="100%" gradientUnits="objectBoundingBox"><stop offset="0" stop-color="#98D6FA" stop-opacity="1" /><stop offset="1" stop-color="#47B0F1" stop-opacity="1" /></linearGradient><linearGradient id="linear_27" x1="11.093360299999999%" y1="87.0084871%" x2="50%" y2="30.481096299999997%" gradientUnits="objectBoundingBox"><stop offset="0" stop-color="#98D6FA" stop-opacity="1" /><stop offset="1" stop-color="#47B0F1" stop-opacity="1" /></linearGradient><linearGradient id="linear_28" x1="11.093360299999999%" y1="87.0084871%" x2="50%" y2="30.481096299999997%" gradientUnits="objectBoundingBox"><stop offset="0" stop-color="#98D6FA" stop-opacity="1" /><stop offset="1" stop-color="#47B0F1" stop-opacity="1" /></linearGradient><linearGradient id="linear_29" x1="12.334964399999999%" y1="87.0084871%" x2="49.99999999999999%" y2="30.481096299999997%" gradientUnits="objectBoundingBox"><stop offset="0" stop-color="#98D6FA" stop-opacity="1" /><stop offset="1" stop-color="#47B0F1" stop-opacity="1" /></linearGradient><linearGradient id="linear_30" x1="100%" y1="-11.7647059%" x2="0%" y2="-11.7647059%" gradientUnits="objectBoundingBox"><stop offset="0" stop-color="#F5DDA7" stop-opacity="1" /><stop offset="1" stop-color="#FA9A41" stop-opacity="1" /></linearGradient><linearGradient id="linear_31" x1="13.724978099999996%" y1="-2.80504909%" x2="100.00000000000271%" y2="-2.80504909%" gradientUnits="objectBoundingBox"><stop offset="0" stop-color="#1D181C" stop-opacity="1" /><stop offset="0.3" stop-color="#2C2422" stop-opacity="1" /><stop offset="0.5" stop-color="#42352C" stop-opacity="1" /><stop offset="0.7" stop-color="#57352C" stop-opacity="1" /><stop offset="1" stop-color="#923629" stop-opacity="1" /></linearGradient><linearGradient id="linear_32" x1="13.724978099999996%" y1="-2.80504909%" x2="100.00000000000271%" y2="-2.80504909%" gradientUnits="objectBoundingBox"><stop offset="0" stop-color="#1D181C" stop-opacity="1" /><stop offset="0.3" stop-color="#2C2422" stop-opacity="1" /><stop offset="0.5" stop-color="#42352C" stop-opacity="1" /><stop offset="0.7" stop-color="#57352C" stop-opacity="1" /><stop offset="1" stop-color="#923629" stop-opacity="1" /></linearGradient><linearGradient id="linear_33" x1="0%" y1="-2.96987539%" x2="99.418534082%" y2="-2.96987539%" gradientUnits="objectBoundingBox"><stop offset="0" stop-color="#FFB859" stop-opacity="1" /><stop offset="1" stop-color="#F97B61" stop-opacity="1" /></linearGradient><linearGradient id="linear_34" x1="0%" y1="-2.96987539%" x2="99.418534082%" y2="-2.96987539%" gradientUnits="objectBoundingBox"><stop offset="0" stop-color="#FFB859" stop-opacity="1" /><stop offset="1" stop-color="#F97B61" stop-opacity="1" /></linearGradient><linearGradient id="linear_35" x1="0%" y1="-2.96987539%" x2="99.418534082%" y2="-2.96987539%" gradientUnits="objectBoundingBox"><stop offset="0" stop-color="#FFB859" stop-opacity="1" /><stop offset="1" stop-color="#F97B61" stop-opacity="1" /></linearGradient></defs><g opacity="1" transform="translate(0 0)  rotate(0 512 512)"><mask id="bg-mask-0" fill="white"><use xlink:href="#path_0"></use></mask><g mask="url(#bg-mask-0)" ><g opacity="1" transform="translate(-10.925398988003963 0)  rotate(0 517.462699494002 512)"><path id="矩形" fill-rule="evenodd" style="fill:#FFFFFF" transform="translate(10.925398988003993 0)  rotate(0 512 512)" opacity="0" d="M0,1024L1024,1024L1024,0L0,0L0,1024Z " /><g opacity="1" transform="translate(0 125.00000002765569)  rotate(0 505.462699494002 416.49999998617216)"><path id="路径-58" fill-rule="evenodd" style="fill:#47B0F1" transform="translate(72.92539891373974 0)  rotate(0 449.9999999724422 354.8076923248157)" opacity="0.05" d="M643.47,23.96C623.63,37.04 564.56,80.6 513.59,76.6C462.62,72.61 447.15,62.71 385.1,123.05C323.05,183.39 239.62,148.88 98.4,178.51C-42.82,208.15 7.12,423.67 14.8,456.77C22.47,489.86 46.11,632.12 150.99,677.04C368.19,751.18 730.88,679.06 786.95,653.9C871.28,620.53 924.86,544.08 888.35,539.62C851.84,535.15 800.22,494.98 850.91,450.24C901.61,405.5 895.59,287.38 888.35,178.51C842.53,-73.31 663.32,10.87 643.47,23.96Z " /><path id="形状结合" fill-rule="evenodd" fill="url(#linear_0)" transform="translate(80.92539888800398 173.99999997234437)  rotate(0 62.00000005 23)" opacity="0.100000001" d="M85,16L116.5,16C120.64,16 124,12.64 124,8.5L124,7.5C124,3.36 120.64,0 116.5,0L37.5,0C33.36,0 30,3.36 30,7.5L30,8.5C30,12.13 32.58,15.16 36,15.85L36,16L39,16L39.24,16C43,16.13 46,19.21 46,23L46,23.24C45.87,27 42.79,30 39,30L7.5,30C3.36,30 0,33.36 0,37.5L0,38.5C0,42.64 3.36,46 7.5,46L86.5,46C90.64,46 94,42.64 94,38.5L94,37.5C94,33.87 91.42,30.85 88,30.15L88,30L85,30L84.76,30C81,29.87 78,26.79 78,23L78,22.76C78.13,19 81.21,16 85,16Z " /><path id="形状结合" fill-rule="evenodd" fill="url(#linear_1)" transform="translate(780.925398988004 3.9999999723443693)  rotate(0 62 23)" opacity="0.100000001" d="M116.5,0L37.5,0C33.36,0 30,3.36 30,7.5L30,8.5C30,12.13 32.58,15.16 36,15.85L36,16L39,16L39.24,16C43,16.13 46,19.21 46,23L46,23.24C45.87,27 42.79,30 39,30L7.5,30C3.36,30 0,33.36 0,37.5L0,38.5C0,42.64 3.36,46 7.5,46L86.5,46C90.64,46 94,42.64 94,38.5L94,37.5C94,33.87 91.42,30.85 88,30.15L88,30L85,30L84.76,30C81,29.87 78,26.79 78,23L78,22.76C78.13,19 81.21,16 85,16L116.5,16C120.64,16 124,12.64 124,8.5L124,7.5C124,3.36 120.64,0 116.5,0Z " /><path id="形状结合" fill-rule="evenodd" fill="url(#linear_2)" transform="translate(72.925398888004 586.9999999723443)  rotate(0 465.00000055 123)" opacity="1" d="M452.52,0C202.37,0 0,38.95 0,87C0,123.72 118.2,155.13 285.59,167.89C305.83,212.24 409.35,246 534,246C673.18,246 786,203.91 786,152C786,149.9 785.82,147.81 785.45,145.75C801.2,142.43 815.64,138.88 828.61,135.13C887.55,127.8 930,107.23 930,83C930,53.03 865.06,28.66 784.3,28.01C701.78,10.79 583.62,0 452.52,0Z " /><g opacity="1" transform="translate(660.099545988004 36.90715797159437)  rotate(0 104.768092 32.371190900375)"><path id="路径" fill-rule="evenodd" fill="url(#linear_3)" transform="translate(0 39.167003127098816)  rotate(0 37.4343421 12.787689336825594)" opacity="1" d="M37.43,25.57C42.77,10.62 60.15,3.55 74.87,5.64C64.03,-1.15 45.89,-2.88 37.43,7.45L37.43,7.36C28.96,-3.06 10.93,-1.25 0,5.55C14.74,3.36 32.11,10.44 37.43,25.48L37.43,25.58L37.43,25.57Z " /><path id="路径" fill-rule="evenodd" fill="url(#linear_4)" transform="translate(94.91315410000001 34.47799892575)  rotate(0 25.94716795 8.8617306875)" opacity="1" d="M51.89,3.91C44.38,-0.8 31.82,-1.99 25.95,5.17L25.95,5.1C20.08,-2.12 7.57,-0.86 0,3.84C10.22,2.34 22.25,7.24 25.95,17.66L25.95,17.72C29.65,7.36 41.68,2.46 51.89,3.91Z " /><path id="路径" fill-rule="evenodd" fill="url(#linear_5)" transform="translate(60.1208168 0)  rotate(0 25.9471676 8.861730650375)" opacity="1" d="M51.89,3.91C44.38,-0.8 31.82,-1.99 25.95,5.17L25.95,5.1C20.08,-2.12 7.57,-0.86 0,3.84C10.22,2.34 22.25,7.24 25.95,17.66L25.95,17.72C29.65,7.36 41.68,2.46 51.89,3.91Z " /><path id="路径" fill-rule="evenodd" fill="url(#linear_6)" transform="translate(173.561624 45.87633603825)  rotate(0 17.98728 6.142647781249998)" opacity="1" d="M35.97,2.71C30.77,-0.55 22.06,-1.38 17.99,3.58L17.99,3.54C13.92,-1.47 5.25,-0.6 0,2.67C7.08,1.62 15.42,5.02 17.99,12.24L17.99,12.29C20.55,5.1 28.89,1.7 35.97,2.71Z " /></g><g opacity="1" transform="translate(0 469.1575109761122)  rotate(0 148.11248011092687 128.42847461933496)"><path id="路径-61" fill-rule="evenodd" fill="url(#linear_7)" transform="translate(11.42593298780622 78.78719794116864)  rotate(10 136.68654712312065 77.75784896233074)" opacity="1" d="M15.44,62.84C30.8,76.02 39.67,87.18 42.03,96.34C45.58,110.08 59.19,123.95 84.74,110.14C101.77,100.94 115.97,108.82 127.33,133.79C152.49,157.22 190.22,161.7 240.51,147.23C290.8,132.76 283.37,109.7 218.23,78.05C201.42,74.62 188.76,72.9 180.22,72.9C171.69,72.9 166.04,64.59 163.27,47.96C161.47,37.56 152.61,31.3 136.69,29.17C120.77,27.05 113.12,20.56 113.75,9.72C101.16,-3.24 88.86,-3.24 76.86,9.72C64.86,22.69 53.25,25.78 42.03,19C7.3,10.2 -5.91,19.86 2.41,47.96C5.85,56.52 10.19,61.48 15.44,62.84Z " /><g opacity="1" transform="translate(103.23882209407006 61.877272252298226)  rotate(-45 35.540276000000006 95.94897485000001)"><path id="形状结合" fill-rule="evenodd" fill="url(#linear_8)" transform="translate(9.512602999999999 0)  rotate(0 30.783974500000006 95.94897485000001)" opacity="1" d="M53.87,191.9L46.69,155.88C51.55,151.7 61.32,140.36 61.57,137.75C57.67,144.03 46.23,152.77 46.23,152.77C46.23,152.77 46.21,152.99 46.18,153.31L37.47,109.66C44.73,104.66 60.93,84.41 61.57,79.96C58.14,86.22 49.93,95.07 36.92,106.51C36.9,106.57 36.89,106.64 36.88,106.7L27.42,59.25C36.42,49.96 47.73,16.5 42.92,28.48C39.67,36.57 34.35,46.05 26.96,56.92L15.61,0L23.1,43.84C7.01,33.95 1.77,19.52 0,20.1C4.96,29.94 12.75,38.85 23.37,46.85C23.42,46.56 23.45,46.26 23.46,45.97L41.79,153.24C41.49,152.39 41.28,151.43 41.16,150.35C35.04,149.66 27.94,145.95 19.88,139.24C23.5,143.61 32.31,151.34 41.89,153.81L48.4,191.9L53.87,191.9Z " /><path id="形状结合" fill-rule="evenodd" fill="url(#linear_9)" transform="translate(0 83.57259269999999)  rotate(0 21.015159499999996 9.66477350000001)" opacity="1" d="M42.03,19.33C41.96,18.14 41.96,17.09 42.03,16.19C21.25,13.06 7.24,7.67 0,0C6.18,8.34 21.82,16.96 42.03,19.33Z " /></g><path id="路径-65" fill-rule="evenodd" fill="url(#linear_10)" transform="translate(55.48131184818977 0)  rotate(0 101.78879021557498 108.40902358299971)" opacity="1" d="M45.02,136.35C66.51,143.82 72.55,154.42 63.13,168.14C58.4,189.22 84.48,204.34 141.36,213.52C226.68,227.29 206.35,195.65 184.42,161.36C168.55,145.48 166.42,135.78 166.42,123.64C166.42,111.5 178.04,91.66 144.66,83.4C130.01,80.07 122.32,65.41 121.61,39.43C119.3,26.37 105.31,23.1 79.63,29.63C68.21,31.83 56.67,26.32 45.02,13.12C12.85,-8.77 -2.08,-3.27 0.23,29.63C6.42,53.2 10.48,68.96 8.45,83.4C6.42,97.85 12.77,125.15 45.02,136.35Z " /><path id="形状结合" fill-rule="evenodd" fill="url(#linear_11)" transform="translate(107.14673787841122 14.866768521533658)  rotate(-26 35.960634999999996 108.35289125)" opacity="1" d="M37.82,58.78C51.06,48.56 50.84,38.81 51.93,31.25L51.93,31.21L51.87,31.52C49.76,41.09 44.93,49.22 37.36,55.91L37.22,56.03L25.12,0L33.6,44.04C13.64,35.25 11.28,19.52 9.51,20.1C12.76,32.66 20.93,41.65 34.01,47.06C34.04,46.88 34.06,46.7 34.08,46.52L44.21,99.12L44.67,99.18C22.13,96.44 7.24,91.24 0,83.57C6.18,91.92 24.45,99.94 44.67,102.31C44.64,101.95 44.63,101.61 44.62,101.27L53.71,148.48C41.12,148.8 30.88,145.67 23,139.11C26.58,143.42 34.41,150.89 54.37,151.9L66.32,213.98L71.92,216.71L58.51,154.62C66.14,150.04 69.4,143.21 71.08,137.75C67.49,145.11 60.49,149.87 57.84,151.48L48.75,109.42C61.82,102.16 70.44,84.42 71.08,79.96C65.02,92.38 57.45,101.1 48.36,106.1L48.07,106.26L37.82,58.78Z " /><path id="路径-96" fill-rule="evenodd" fill="url(#linear_12)" transform="translate(181.2638640281358 2.8424889704220817)  rotate(0 55.330767500054066 121.46848927270383)" opacity="1" d="M9.88,81.31C21.41,104.16 9.92,108.04 1.67,121.47C-8.24,154.28 28.86,158.05 35.23,168.99C41.59,179.92 28.86,201.97 35.23,217.98C41.59,233.98 84.03,260.42 102.05,226.38C120.07,192.34 105.41,174.82 97.78,168.99C92.7,165.09 92.7,157.36 97.78,145.79C112.45,124.67 113.87,112.6 102.05,109.57C90.23,106.53 86.7,99.56 91.47,88.66C102.9,71.33 100.42,59.95 84.03,54.51C59.46,46.35 66.97,34.95 62.21,17.01C52.4,-3.76 41.28,-5.51 28.86,11.75C22.52,27.53 16.19,38.65 9.88,45.12C-4.58,67.63 -1.65,58.45 9.88,81.31Z " /><g opacity="1" transform="translate(201.91219898800398 44.34917509623216)  rotate(0 35.540276500000004 95.94897495000001)"><path id="形状结合" fill-rule="evenodd" fill="url(#linear_13)" transform="translate(9.512603000000013 0)  rotate(0 30.783974999999998 95.94897495000001)" opacity="1" d="M46.23,152.77C46.23,152.77 46.21,152.99 46.18,153.31L37.47,109.66C44.73,104.66 60.93,84.41 61.57,79.96C58.14,86.22 49.93,95.07 36.92,106.51C36.9,106.57 36.89,106.64 36.88,106.7L27.42,59.25C36.42,49.96 47.73,16.5 42.92,28.48C39.67,36.57 34.35,46.05 26.96,56.92L15.61,0L23.1,43.84C7.01,33.95 1.77,19.52 0,20.1C4.96,29.94 12.75,38.85 23.37,46.85C23.42,46.56 23.45,46.26 23.46,45.97L41.79,153.24C41.49,152.39 41.28,151.43 41.16,150.35C35.04,149.66 27.94,145.95 19.88,139.24C23.5,143.61 32.31,151.34 41.89,153.81L48.4,191.9L53.87,191.9L46.69,155.88C51.55,151.7 61.32,140.36 61.57,137.75C57.67,144.03 46.23,152.77 46.23,152.77Z " /><path id="形状结合" fill-rule="evenodd" fill="url(#linear_14)" transform="translate(0 83.5725919)  rotate(0 21.01516000000001 9.664774000000001)" opacity="1" d="M42.03,19.33C41.96,18.14 41.96,17.09 42.03,16.19C21.25,13.06 7.24,7.67 0,0C6.18,8.34 21.82,16.96 42.03,19.33Z " /></g></g><g opacity="1" transform="translate(906.925398988004 612.9999999723443)  rotate(0 52 32.00000002206705)"><path id="路径-38" fill-rule="evenodd" fill="url(#linear_15)" transform="translate(20 13.394751852779663)  rotate(0 20.1911512 18.12624964861017)" opacity="1" d="M40.38,36.12C40.12,12.62 24.14,-2.07 0,0.24C17.84,1.96 25.3,13.92 22.4,36.12C29.38,36.3 35.38,36.3 40.38,36.12Z " /><path id="路径-39" fill-rule="evenodd" fill="url(#linear_16)" transform="translate(36.7306519 0)  rotate(0 20.3212756 24.999999987500004)" opacity="1" d="M40.64,49.65C35.78,16.44 20.82,6.57 0,0C16.31,10.69 22.1,27.24 17.39,49.65C26.54,50.12 34.29,50.12 40.64,49.65Z " /><path id="路径-40" fill-rule="evenodd" fill="url(#linear_17)" transform="translate(57.051927500000005 13.287657042201523)  rotate(0 23.47403625 18.35617147889924)" opacity="1" d="M46.95,0.11C30.83,-0.3 12.86,-1.38 0,36.71C10.9,36.36 18.9,36.36 24.02,36.71C21.93,15.42 29.58,3.22 46.95,0.11Z " /><path id="椭圆形" fill-rule="evenodd" fill="url(#linear_18)" transform="translate(0 20)  rotate(0 30.5 22.00000001394949)" opacity="1" d="M61,28.61C61,12.81 47.34,0 30.5,0C13.66,0 0,12.81 0,28.61C0,44.41 14.57,44 31.41,44C48.26,44 61,44.41 61,28.61Z " /><path id="椭圆形备份-6" fill-rule="evenodd" fill="url(#linear_19)" transform="translate(45 37)  rotate(0 19 13.500000022067049)" opacity="1" d="M38,17.56C38,7.86 29.49,0 19,0C8.51,0 0,7.86 0,17.56C0,27.25 9.07,27 19.57,27C30.06,27 38,27.25 38,17.56Z " /></g></g><g opacity="1" transform="translate(107.80554613912847 50.011498951441055)  rotate(0 399.05992678496244 450.461562930489)"><path id="路径" fill-rule="evenodd" fill="url(#linear_20)" transform="translate(194.8830967531099 8.96217580544501)  rotate(-20 11.542138000000008 37.037284979999995)" opacity="1" d="M0,74.07L23.08,74.07L17.31,0L5.77,0L0,74.07Z " /><path id="矩形" fill-rule="evenodd" fill="url(#linear_21)" transform="translate(159.41026165176007 52.38889783066176)  rotate(-20 80.794967 86.4203315)" opacity="1" d="M80.79,172.84L80.79,172.84C102.22,172.84 122.77,164.33 137.92,149.18C153.08,134.03 161.59,113.48 161.59,92.05L161.59,80.79C161.59,59.36 153.08,38.81 137.92,23.66C122.77,8.51 102.22,0 80.79,0L80.79,0C36.17,0 0,36.17 0,80.79L0,92.05C0,136.67 36.17,172.84 80.79,172.84Z " /><path id="椭圆形" fill-rule="evenodd" fill="url(#linear_22)" transform="translate(79.74065384887557 90.64888714855893)  rotate(-20 173.132072 74.0745699)" opacity="1" d="M173.13,0C77.51,0 0,33.16 0,74.07C0,114.98 77.51,148.15 173.13,148.15C268.75,148.15 346.26,114.98 346.26,74.07C346.26,33.16 268.75,0 173.13,0Z " /><path id="椭圆形备份" fill-rule="evenodd" fill="url(#linear_23)" transform="translate(79.74065384887561 99.53832314855894)  rotate(-20 173.132072 74.0745699)" opacity="1" d="M173.13,0C77.51,0 0,33.16 0,74.07C0,114.98 77.51,148.15 173.13,148.15C268.75,148.15 346.26,114.98 346.26,74.07C346.26,33.16 268.75,0 173.13,0Z " /><path id="椭圆形" fill-rule="evenodd" fill="url(#linear_24)" transform="translate(151.10473184887553 142.37621904855894)  rotate(-20 103.879243 37.037285)" opacity="1" d="M103.88,0C46.51,0 0,16.58 0,37.04C0,57.49 46.51,74.07 103.88,74.07C161.25,74.07 207.76,57.49 207.76,37.04C207.76,16.58 161.25,0 103.88,0Z " /><path id="路径" fill-rule="evenodd" fill="url(#linear_25)" transform="translate(97.41888453496244 142.09855210391027)  rotate(-20 301.64104225 338.0212175)" opacity="0.3" d="M0,635.68L603.28,676.04L372.98,0L165.22,0L0,635.68Z " /><path id="椭圆形" fill-rule="evenodd" fill="url(#linear_26)" transform="translate(185.44694126148164 2.3063609204667266)  rotate(-20 8.31079569 8.88943641)" opacity="1" d="M8.31,0C3.72,0 0,3.98 0,8.89C0,13.8 3.72,17.78 8.31,17.78C12.9,17.78 16.62,13.8 16.62,8.89C16.62,3.98 12.9,0 8.31,0Z " /><path id="4" fill-rule="evenodd" fill="url(#linear_27)" transform="translate(232.9845399782851 220.37252106559612)  rotate(15 40.00246399999999 65.42739549999999)" opacity="1" d="M16.72,98.1L51.19,98.1L51.19,130.85L69.11,130.85L69.11,98.1L80,98.1L80,81.21L69.11,81.21L69.11,0L51.19,0L51.19,81.21L26.15,81.21C24.15,81.21 22.52,80.72 21.27,79.75C19.61,78.38 18.78,76.78 18.78,74.95C18.78,74.32 18.92,72.97 19.21,70.92L30.01,0L12.26,0L0.26,77C0.09,78.15 0,79.29 0,80.43C0,84.21 0.74,87.27 2.23,89.61C5.83,95.27 10.66,98.1 16.72,98.1Z " /><path id="4" fill-rule="evenodd" fill="url(#linear_28)" transform="translate(285.4877738488756 464.36758404855897)  rotate(-14.999999999999998 35.435125 57.95712899999998)" opacity="1" d="M61.22,0L45.35,0L45.35,71.93L23.17,71.93C21.4,71.93 19.95,71.5 18.84,70.64C17.37,69.43 16.64,68.01 16.64,66.39C16.64,65.83 16.76,64.64 17.01,62.82L26.59,0L10.86,0L0.23,68.21C0.08,69.22 0,70.24 0,71.25C0,74.59 0.66,77.3 1.97,79.38C5.17,84.39 9.44,86.9 14.81,86.9L45.35,86.9L45.35,115.91L61.22,115.91L61.22,86.9L70.87,86.9L70.87,71.93L61.22,71.93L61.22,0Z " /><path id="0" fill-rule="evenodd" fill="url(#linear_29)" transform="translate(344.21100871946595 326.8135390315218)  rotate(15 29.982315 49.84030950000002)" opacity="1" d="M0 81.97C0 87.35 1.58 91.59 4.75 94.67C8.23 98.01 12.59 99.68 17.84 99.68L44.66 99.68C46.44 99.68 48.46 99.16 50.72 98.12C52.63 97.25 54.21 96.19 55.47 94.93C58.47 91.93 59.96 87.51 59.96 81.65L59.96 17.9C59.96 13.13 58.49 8.92 55.54 5.27C52.67 1.76 48.2 0 42.12 0L16.34 0C11.91 0 8.1 1.67 4.88 5.01C1.63 8.44 0 12.93 0 18.49L0 81.97Z M40.6976 12.8263L19.4676 12.8263C17.6476 12.8263 16.2376 13.2863 15.2376 14.1963C14.1476 15.2363 13.6076 16.4963 13.6076 17.9663L13.6076 79.9563C13.6076 84.5563 15.7976 86.8563 20.1876 86.8563L39.4576 86.8563C42.1876 86.8563 44.0576 86.3163 45.0576 85.2263C45.9276 84.2263 46.3576 82.4663 46.3576 79.9563L46.3576 19.0763C46.3576 14.9063 44.4676 12.8263 40.6976 12.8263Z " /></g><path id="路径" fill-rule="evenodd" fill="url(#linear_30)" transform="translate(586.4524270851555 785.0272613493412)  rotate(-8 125.84849913079921 55.49999967711125)" opacity="0.4" d="M22.72,54.4C8.16,59.97 13.31,67.36 19.34,74.33C28.26,84.65 101.16,116.77 186.03,110.1C265.17,103.89 257.9,71.73 240.12,55.1C225.79,41.74 160.09,6.76 80.14,1.08C32.03,-2.35 10.42,2.96 5.56,8.7C-2.47,18.22 -4.65,27.24 18.89,38.42C40.03,48.45 30.64,51.36 22.72,54.4Z " /><g opacity="1" transform="translate(579.0324500951454 354.31793599979324)  rotate(0 100.82850450919665 256.45030449646083)"><path id="路径" fill-rule="evenodd" style="fill:#333333" transform="translate(65.94318282855482 479.39420204636167)  rotate(-13 22.474883051666012 14.40999274415529)" opacity="1" d="M41.88,12.34C41.88,12.34 28.01,5.77 18.05,2.03C8.09,-1.7 -0.35,-0.1 0.01,5.28C0.38,10.67 14.96,19.21 17.11,20.39C19.26,21.58 26.81,25.96 31.33,28.21C34.9,29.98 42.22,27.57 43.98,24.95C45.74,22.33 44.53,19.62 44.68,14.22L41.88,12.34Z " /><path id="路径" fill-rule="evenodd" style="fill:#333333" transform="translate(158.88405966865759 458.5062945714087)  rotate(-14 20.072749498261466 13.325361851649433)" opacity="1" d="M28.61,4.74C28.61,4.74 19.07,3.06 12.86,0.95C5.94,-1.4 -0.81,0.84 0.08,5.08C0.97,9.33 16.29,18.93 17.98,19.91C19.66,20.89 35.2,29.01 38.18,25.98C41.16,22.94 39.81,20.59 40.01,11L28.61,4.74Z " /><path id="路径" fill-rule="evenodd" fill="url(#linear_31)" transform="translate(123.2759277255347 225.68206400020668)  rotate(0 37.42918235205309 124.7495864152085)" opacity="1" d="M0,35.54C0,35.54 12.51,144.78 17.53,162.2C22.55,179.62 42.07,214.44 54.05,243.8C78.62,261.71 74.62,231.69 74.62,231.69C74.62,231.69 59.49,175.91 50.81,157.71C42.13,139.52 54.75,69.11 52.62,39.33C50.49,9.56 45.25,0 45.25,0L0,35.54Z " /><path id="路径" fill-rule="evenodd" fill="url(#linear_32)" transform="translate(72.89294874326629 252.1139720002067)  rotate(0 38.80851074113422 124.19738904212971)" opacity="1" d="M20.19,0C20.19,0 -0.24,132.81 0,150.97C0.24,169.14 11.02,207.09 14.81,238.66C33.46,263.1 36.69,233.82 36.69,233.82C36.69,233.82 37.04,176.06 33.46,156.01C29.89,135.96 63.83,71.72 69.55,42.48C75.28,13.24 77.62,1.44 77.62,1.44L20.19,0Z " /><path id="路径" fill-rule="evenodd" style="fill:#EFBA9E" transform="translate(0 51.60256128458204)  rotate(0 20.946474562767364 15.039751357812335)" opacity="1" d="M27.94,5.66C21.59,1.83 18.99,6.91 14.39,5.66C9.78,4.41 3.62,-2.09 0.49,0.68C-1.18,2.18 1.19,4.02 11.56,12.08C11.56,12.08 25.79,21.86 27.94,22.12C30.09,22.38 37.29,30.08 37.29,30.08L41.89,20.04C35.87,15.94 38.49,12.01 27.94,5.66Z " /><path id="路径" fill-rule="evenodd" style="fill:#EBB0B0" transform="translate(104.89294897185817 5.682064045647763)  rotate(0 22.999999976838268 35.831374489865006)" opacity="1" d="M42.61,37.96C44.52,33.26 50.28,8.67 31.21,1.66C12.13,-5.34 -2.8,10.9 0.44,29.73C3.68,48.56 5.61,59 10.61,59.67C15.62,60.34 17.6,66.85 18.7,70.83C19.8,74.81 40.99,63.23 40.99,63.23L46,61.59L46,57.8C42.23,51.74 40.7,42.66 42.61,37.96Z " /><path id="路径" fill-rule="evenodd" fill="url(#linear_33)" transform="translate(28.380399928176274 63.73770883481389)  rotate(0 69.69970964867922 41.61132784593816)" opacity="1" d="M4.83,24.17C19.46,36.38 64.89,91.59 99.51,82.14C134.14,72.69 139.4,58.47 139.4,58.47L120.3,16.95C120.3,16.95 118.72,24.13 96.14,36.38C73.57,48.64 71.99,38.7 11.11,0.35C6.33,-2.65 -7.15,14.17 4.83,24.17Z " /><path id="路径" fill-rule="evenodd" fill="url(#linear_34)" transform="translate(85.05210785702738 62.60961863549255)  rotate(0 50.316631731480314 100.7325205456248)" opacity="1" d="M8.9,56.77C-0.28,82.9 18.36,145.22 1.63,181.08C-4.27,193.72 6.84,201.36 18.84,201.36C33.34,201.36 91.44,204.18 98.84,181.08C102.64,169.19 99.29,91.58 98.84,84.35C96.29,42.74 79.37,-1.52 65.28,0.04C55.97,1.07 28.84,0.04 8.9,56.77Z " /><path id="路径" fill-rule="evenodd" style="fill:#EFBA9E" transform="translate(85.89294868536837 187.6820640002067)  rotate(0 14.000000137968534 16.00000010016825)" opacity="1" d="M0.01,15.94C0.15,21.15 0.44,30.58 0.44,30.58C0.44,30.58 2.3,33.23 11.42,31.29C22.15,29.63 27.48,33.98 27.98,29.28C28.47,24.58 21.24,26.09 16.36,21.84C13.69,19.61 11.32,17.04 9.33,14.2C8.47,10.92 7.84,0 7.84,0C7.84,0 -0.33,3.06 0.01,15.94Z " /><path id="路径" fill-rule="evenodd" fill="url(#linear_35)" transform="translate(47.83747112553472 88.72476341723453)  rotate(0 44.023889899212 66.08814597028436)" opacity="1" d="M55.96,8.98C47.37,14.97 0,81.53 0,119.48C0,130.64 21.74,134.02 37.87,131.27C48.4,129.47 49.49,124.4 47.32,116.96C44.58,107.56 30.66,109.71 30.66,109.71C30.66,109.71 75.29,60.23 84.1,35.85C92.4,12.88 89.64,-14.49 55.96,8.98Z " /><path id="路径" fill-rule="evenodd" style="fill:#131322" transform="translate(97.65921792058703 0)  rotate(0 29.017936125306672 30.341032017121346)" opacity="1" d="M16.03 37.43C16.03 37.43 17.14 35.7 19.02 47.68L22.37 48.73C22.9261 48.8768 22.8865 48.3923 22.8278 47.6752C22.7547 46.7805 22.6519 45.5238 23.64 44.68C25.41 43.16 31.34 46.97 29.04 52.31C27.7 55.4 27.15 56.19 26.91 56.31C26.81 56.19 26.75 56.13 26.75 56.13C26.75 56.13 26.75 56.39 26.91 56.31C27.77 57.24 31.81 61.41 34.28 60.57C37.05 59.63 52.54 58.48 53.23 53.69C53.4433 52.2062 54.0656 50.645 54.7947 48.8158C56.4242 44.7278 58.5871 39.3015 57.91 30.41C56.92 17.54 42.36 5.18 33.88 2.7C25.41 0.22 19.13 -0.4 14.45 0.22C-4.28 2.7 -1.19 18.87 3.83 27.42C8.84 35.97 9.1 33.12 16.03 37.43Z" /></g></g></g></g></svg>