<svg xmlns="http://www.w3.org/2000/svg" xmlns:xlink="http://www.w3.org/1999/xlink" width="1024" height="1024" viewBox="0 0 1024 1024" fill="none"><defs><rect id="path_0" x="0" y="0" width="1024" height="1024" /><linearGradient id="linear_0" x1="-13.582350699999997%" y1="50%" x2="50%" y2="47.2031971%" gradientUnits="objectBoundingBox"><stop offset="0" stop-color="#98D6FA" stop-opacity="1" /><stop offset="1" stop-color="#47B0F1" stop-opacity="1" /></linearGradient><linearGradient id="linear_1" x1="-13.582350699999997%" y1="50%" x2="50%" y2="47.2031971%" gradientUnits="objectBoundingBox"><stop offset="0" stop-color="#98D6FA" stop-opacity="1" /><stop offset="1" stop-color="#47B0F1" stop-opacity="1" /></linearGradient><linearGradient id="linear_2" x1="-9.43689570931383e-14%" y1="-3.10559006%" x2="100%" y2="-3.10559006%" gradientUnits="objectBoundingBox"><stop offset="0" stop-color="#FFF5DE" stop-opacity="1" /><stop offset="1" stop-color="#FBD2AC" stop-opacity="1" /></linearGradient><linearGradient id="linear_3" x1="-13.582350699999997%" y1="50%" x2="50%" y2="47.6284444%" gradientUnits="objectBoundingBox"><stop offset="0" stop-color="#98D6FA" stop-opacity="1" /><stop offset="1" stop-color="#47B0F1" stop-opacity="1" /></linearGradient><linearGradient id="linear_4" x1="-13.582350699999997%" y1="50%" x2="50%" y2="47.629463%" gradientUnits="objectBoundingBox"><stop offset="0" stop-color="#98D6FA" stop-opacity="1" /><stop offset="1" stop-color="#47B0F1" stop-opacity="1" /></linearGradient><linearGradient id="linear_5" x1="-13.582350699999997%" y1="50%" x2="50%" y2="47.629463%" gradientUnits="objectBoundingBox"><stop offset="0" stop-color="#98D6FA" stop-opacity="1" /><stop offset="1" stop-color="#47B0F1" stop-opacity="1" /></linearGradient><linearGradient id="linear_6" x1="-13.582350699999997%" y1="50%" x2="50%" y2="47.6298828%" gradientUnits="objectBoundingBox"><stop offset="0" stop-color="#98D6FA" stop-opacity="1" /><stop offset="1" stop-color="#47B0F1" stop-opacity="1" /></linearGradient><linearGradient id="linear_7" x1="-13.582350699999997%" y1="50%" x2="50%" y2="43.4230204%" gradientUnits="objectBoundingBox"><stop offset="0" stop-color="#98D6FA" stop-opacity="1" /><stop offset="1" stop-color="#47B0F1" stop-opacity="1" /></linearGradient><linearGradient id="linear_8" x1="43.13989250000001%" y1="-6.451612899999999%" x2="60.33656359999999%" y2="0%" gradientUnits="objectBoundingBox"><stop offset="0.0315726754" stop-color="#AFDEF9" stop-opacity="1" /><stop offset="1" stop-color="#7CC9F9" stop-opacity="1" /></linearGradient><linearGradient id="linear_9" x1="43.13989250000001%" y1="-6.451612899999999%" x2="60.33656359999999%" y2="0%" gradientUnits="objectBoundingBox"><stop offset="0.0315726754" stop-color="#AFDEF9" stop-opacity="1" /><stop offset="1" stop-color="#7CC9F9" stop-opacity="1" /></linearGradient><linearGradient id="linear_10" x1="5.920258089999997%" y1="60.85714990000001%" x2="59.966368%" y2="37.0542203%" gradientUnits="objectBoundingBox"><stop offset="0" stop-color="#98D6FA" stop-opacity="1" /><stop offset="1" stop-color="#47B0F1" stop-opacity="1" /></linearGradient><linearGradient id="linear_11" x1="44.49263710000001%" y1="-6.451612899999999%" x2="58.29829660000001%" y2="0%" gradientUnits="objectBoundingBox"><stop offset="0.0315726754" stop-color="#AFDEF9" stop-opacity="1" /><stop offset="1" stop-color="#7CC9F9" stop-opacity="1" /></linearGradient><linearGradient id="linear_12" x1="28.4038852%" y1="87.0084871%" x2="50%" y2="30.481096299999997%" gradientUnits="objectBoundingBox"><stop offset="0" stop-color="#98D6FA" stop-opacity="1" /><stop offset="1" stop-color="#47B0F1" stop-opacity="1" /></linearGradient><linearGradient id="linear_13" x1="43.13989250000001%" y1="-6.451612899999999%" x2="60.33656359999999%" y2="0%" gradientUnits="objectBoundingBox"><stop offset="0.0315726754" stop-color="#AFDEF9" stop-opacity="1" /><stop offset="1" stop-color="#7CC9F9" stop-opacity="1" /></linearGradient><linearGradient id="linear_14" x1="43.13989250000001%" y1="-6.451612899999999%" x2="60.33656359999999%" y2="0%" gradientUnits="objectBoundingBox"><stop offset="0.0315726754" stop-color="#AFDEF9" stop-opacity="1" /><stop offset="1" stop-color="#7CC9F9" stop-opacity="1" /></linearGradient><linearGradient id="linear_15" x1="80.1766865%" y1="78.1244605%" x2="40.1612594%" y2="1.2035674499999982%" gradientUnits="objectBoundingBox"><stop offset="0" stop-color="#98D6FA" stop-opacity="1" /><stop offset="1" stop-color="#47B0F1" stop-opacity="1" /></linearGradient><linearGradient id="linear_16" x1="16.9636606%" y1="77.6033014%" x2="73.1106367%" y2="27.310414800000004%" gradientUnits="objectBoundingBox"><stop offset="0" stop-color="#98D6FA" stop-opacity="1" /><stop offset="1" stop-color="#47B0F1" stop-opacity="1" /></linearGradient><linearGradient id="linear_17" x1="0%" y1="66.87911599999998%" x2="84.977599%" y2="36.12556749999999%" gradientUnits="objectBoundingBox"><stop offset="0" stop-color="#98D6FA" stop-opacity="1" /><stop offset="1" stop-color="#47B0F1" stop-opacity="1" /></linearGradient><linearGradient id="linear_18" x1="0%" y1="64.3617284%" x2="84.977599%" y2="38.1948302%" gradientUnits="objectBoundingBox"><stop offset="0" stop-color="#98D6FA" stop-opacity="1" /><stop offset="1" stop-color="#47B0F1" stop-opacity="1" /></linearGradient><linearGradient id="linear_19" x1="0%" y1="63.9354617%" x2="84.977599%" y2="38.5452163%" gradientUnits="objectBoundingBox"><stop offset="0" stop-color="#98D6FA" stop-opacity="1" /><stop offset="1" stop-color="#47B0F1" stop-opacity="1" /></linearGradient><linearGradient id="linear_20" x1="-30.587607500000004%" y1="23.564298000000004%" x2="76.519308%" y2="87.00848710000001%" gradientUnits="objectBoundingBox"><stop offset="0" stop-color="#98D6FA" stop-opacity="1" /><stop offset="1" stop-color="#47B0F1" stop-opacity="1" /></linearGradient><linearGradient id="linear_21" x1="-13.447055299999988%" y1="-49.774715%" x2="230.07378200000002%" y2="238.76616200000004%" gradientUnits="objectBoundingBox"><stop offset="0" stop-color="#98D6FA" stop-opacity="1" /><stop offset="1" stop-color="#47B0F1" stop-opacity="1" /></linearGradient><linearGradient id="linear_22" x1="-40.5074008%" y1="39.29463309999999%" x2="79.78365670000001%" y2="64.986908%" gradientUnits="objectBoundingBox"><stop offset="0" stop-color="#98D6FA" stop-opacity="1" /><stop offset="1" stop-color="#47B0F1" stop-opacity="1" /></linearGradient><linearGradient id="linear_23" x1="-2.84049539%" y1="23.564297999999997%" x2="50%" y2="65.6787709%" gradientUnits="objectBoundingBox"><stop offset="0" stop-color="#98D6FA" stop-opacity="1" /><stop offset="1" stop-color="#47B0F1" stop-opacity="1" /></linearGradient><linearGradient id="linear_24" x1="-5.209080490000001%" y1="23.564298000000004%" x2="68.16788769999998%" y2="87.00848710000001%" gradientUnits="objectBoundingBox"><stop offset="0" stop-color="#98D6FA" stop-opacity="1" /><stop offset="1" stop-color="#47B0F1" stop-opacity="1" /></linearGradient><linearGradient id="linear_25" x1="-39.3795937%" y1="23.564298000000004%" x2="79.4125244%" y2="87.00848710000001%" gradientUnits="objectBoundingBox"><stop offset="0" stop-color="#98D6FA" stop-opacity="1" /><stop offset="1" stop-color="#47B0F1" stop-opacity="1" /></linearGradient><linearGradient id="linear_26" x1="37.9528734%" y1="0%" x2="50%" y2="82.3154842%" gradientUnits="objectBoundingBox"><stop offset="0" stop-color="#98D6FA" stop-opacity="1" /><stop offset="1" stop-color="#47B0F1" stop-opacity="1" /></linearGradient><linearGradient id="linear_27" x1="60.59716439999998%" y1="-1.7763568394002505e-13%" x2="49.999999999999986%" y2="84.2998116%" gradientUnits="objectBoundingBox"><stop offset="0" stop-color="#98D6FA" stop-opacity="1" /><stop offset="1" stop-color="#47B0F1" stop-opacity="1" /></linearGradient><linearGradient id="linear_28" x1="100%" y1="-11.7647059%" x2="0%" y2="-11.7647059%" gradientUnits="objectBoundingBox"><stop offset="0" stop-color="#F5DDA7" stop-opacity="1" /><stop offset="1" stop-color="#FA9A41" stop-opacity="1" /></linearGradient><linearGradient id="linear_29" x1="100%" y1="102.96987539%" x2="0.5814659180000015%" y2="102.96987539%" gradientUnits="objectBoundingBox"><stop offset="0" stop-color="#FFB859" stop-opacity="1" /><stop offset="1" stop-color="#F97B61" stop-opacity="1" /></linearGradient><linearGradient id="linear_30" x1="86.2750219%" y1="102.80504908999998%" x2="-2.708944180085382e-12%" y2="102.80504908999998%" gradientUnits="objectBoundingBox"><stop offset="0" stop-color="#1D181C" stop-opacity="1" /><stop offset="0.3" stop-color="#2C2422" stop-opacity="1" /><stop offset="0.5" stop-color="#42352C" stop-opacity="1" /><stop offset="0.7" stop-color="#57352C" stop-opacity="1" /><stop offset="1" stop-color="#923629" stop-opacity="1" /></linearGradient><linearGradient id="linear_31" x1="-2.708944180085382e-12%" y1="102.80504908999998%" x2="86.2750219%" y2="102.80504908999998%" gradientUnits="objectBoundingBox"><stop offset="0" stop-color="#923629" stop-opacity="1" /><stop offset="0.3" stop-color="#57352C" stop-opacity="1" /><stop offset="0.5" stop-color="#42352C" stop-opacity="1" /><stop offset="0.7" stop-color="#2C2422" stop-opacity="1" /><stop offset="1" stop-color="#1D181C" stop-opacity="1" /></linearGradient><linearGradient id="linear_32" x1="0%" y1="102.96987539%" x2="99.418534082%" y2="102.96987539%" gradientUnits="objectBoundingBox"><stop offset="0" stop-color="#FFB859" stop-opacity="1" /><stop offset="1" stop-color="#F97B61" stop-opacity="1" /></linearGradient><linearGradient id="linear_33" x1="40.192908%" y1="102.96987539%" x2="66.6858215%" y2="95.35346191000001%" gradientUnits="objectBoundingBox"><stop offset="0" stop-color="#F97B61" stop-opacity="1" /><stop offset="1" stop-color="#FFB859" stop-opacity="1" /></linearGradient></defs><g opacity="1" transform="translate(0 0)  rotate(0 512 512)"><mask id="bg-mask-0" fill="white"><use xlink:href="#path_0"></use></mask><g mask="url(#bg-mask-0)" ><g opacity="1" transform="translate(-10.925398988003963 0)  rotate(0 517.462699494002 512)"><path id="矩形" fill-rule="evenodd" style="fill:#FFFFFF" transform="translate(10.925398988003993 0)  rotate(0 512 512)" opacity="0" d="M0,1024L1024,1024L1024,0L0,0L0,1024Z " /><g opacity="1" transform="translate(0 125.00000002765569)  rotate(0 505.462699494002 416.49999998617216)"><path id="路径-58" fill-rule="evenodd" style="fill:#47B0F1" transform="translate(72.92539891373974 0)  rotate(0 449.9999999724422 354.8076923248157)" opacity="0.05" d="M513.59,76.6C462.62,72.61 447.15,62.71 385.1,123.05C323.05,183.39 239.62,148.88 98.4,178.51C-42.82,208.15 7.12,423.67 14.8,456.77C22.47,489.86 46.11,632.12 150.99,677.04C368.19,751.18 730.88,679.06 786.95,653.9C871.28,620.53 924.86,544.08 888.35,539.62C851.84,535.15 800.22,494.98 850.91,450.24C901.61,405.5 895.59,287.38 888.35,178.51C842.53,-73.31 663.32,10.87 643.47,23.96C623.63,37.04 564.56,80.6 513.59,76.6Z " /><path id="形状结合" fill-rule="evenodd" fill="url(#linear_0)" transform="translate(80.92539888800398 173.99999997234437)  rotate(0 62.00000005 23)" opacity="0.100000001" d="M37.5,0C33.36,0 30,3.36 30,7.5L30,8.5C30,12.13 32.58,15.16 36,15.85L36,16L39,16L39.24,16C43,16.13 46,19.21 46,23L46,23.24C45.87,27 42.79,30 39,30L7.5,30C3.36,30 0,33.36 0,37.5L0,38.5C0,42.64 3.36,46 7.5,46L86.5,46C90.64,46 94,42.64 94,38.5L94,37.5C94,33.87 91.42,30.85 88,30.15L88,30L85,30L84.76,30C81,29.87 78,26.79 78,23L78,22.76C78.13,19 81.21,16 85,16L116.5,16C120.64,16 124,12.64 124,8.5L124,7.5C124,3.36 120.64,0 116.5,0L37.5,0Z " /><path id="形状结合" fill-rule="evenodd" fill="url(#linear_1)" transform="translate(780.925398988004 3.9999999723443693)  rotate(0 62 23)" opacity="0.100000001" d="M84.76,30C81,29.87 78,26.79 78,23L78,22.76C78.13,19 81.21,16 85,16L116.5,16C120.64,16 124,12.64 124,8.5L124,7.5C124,3.36 120.64,0 116.5,0L37.5,0C33.36,0 30,3.36 30,7.5L30,8.5C30,12.13 32.58,15.16 36,15.85L36,16L39,16L39.24,16C43,16.13 46,19.21 46,23L46,23.24C45.87,27 42.79,30 39,30L7.5,30C3.36,30 0,33.36 0,37.5L0,38.5C0,42.64 3.36,46 7.5,46L86.5,46C90.64,46 94,42.64 94,38.5L94,37.5C94,33.87 91.42,30.85 88,30.15L88,30L85,30L84.76,30Z " /><path id="形状结合" fill-rule="evenodd" fill="url(#linear_2)" transform="translate(72.925398888004 586.9999999723443)  rotate(0 465.00000055 123)" opacity="1" d="M534,246C673.18,246 786,203.91 786,152C786,149.9 785.82,147.81 785.45,145.75C801.2,142.43 815.64,138.88 828.61,135.13C887.55,127.8 930,107.23 930,83C930,53.03 865.06,28.66 784.3,28.01C701.78,10.79 583.62,0 452.52,0C202.37,0 0,38.95 0,87C0,123.72 118.2,155.13 285.59,167.89C305.83,212.24 409.35,246 534,246Z " /><g opacity="1" transform="translate(660.099545988004 36.90715797159437)  rotate(0 104.768092 32.371190900375)"><path id="路径" fill-rule="evenodd" fill="url(#linear_3)" transform="translate(0 39.167003127098816)  rotate(0 37.4343421 12.787689336825594)" opacity="1" d="M37.43,25.57C42.77,10.62 60.15,3.55 74.87,5.64C64.03,-1.15 45.89,-2.88 37.43,7.45L37.43,7.36C28.96,-3.06 10.93,-1.25 0,5.55C14.74,3.36 32.11,10.44 37.43,25.48L37.43,25.58L37.43,25.57Z " /><path id="路径" fill-rule="evenodd" fill="url(#linear_4)" transform="translate(94.91315410000001 34.47799892575)  rotate(0 25.94716795 8.8617306875)" opacity="1" d="M51.89,3.91C44.38,-0.8 31.82,-1.99 25.95,5.17L25.95,5.1C20.08,-2.12 7.57,-0.86 0,3.84C10.22,2.34 22.25,7.24 25.95,17.66L25.95,17.72C29.65,7.36 41.68,2.46 51.89,3.91Z " /><path id="路径" fill-rule="evenodd" fill="url(#linear_5)" transform="translate(60.1208168 0)  rotate(0 25.9471676 8.861730650375)" opacity="1" d="M51.89,3.91C44.38,-0.8 31.82,-1.99 25.95,5.17L25.95,5.1C20.08,-2.12 7.57,-0.86 0,3.84C10.22,2.34 22.25,7.24 25.95,17.66L25.95,17.72C29.65,7.36 41.68,2.46 51.89,3.91Z " /><path id="路径" fill-rule="evenodd" fill="url(#linear_6)" transform="translate(173.561624 45.87633603825)  rotate(0 17.98728 6.142647781249998)" opacity="1" d="M35.97,2.71C30.77,-0.55 22.06,-1.38 17.99,3.58L17.99,3.54C13.92,-1.47 5.25,-0.6 0,2.67C7.08,1.62 15.42,5.02 17.99,12.24L17.99,12.29C20.55,5.1 28.89,1.7 35.97,2.71Z " /></g><g opacity="1" transform="translate(0 469.1575109761122)  rotate(0 148.11248011092687 128.42847461933496)"><path id="路径-61" fill-rule="evenodd" fill="url(#linear_7)" transform="translate(11.42593298780622 78.78719794116864)  rotate(10 136.68654712312065 77.75784896233074)" opacity="1" d="M218.23,78.05C201.42,74.62 188.76,72.9 180.22,72.9C171.69,72.9 166.04,64.59 163.27,47.96C161.47,37.56 152.61,31.3 136.69,29.17C120.77,27.05 113.12,20.56 113.75,9.72C101.16,-3.24 88.86,-3.24 76.86,9.72C64.86,22.69 53.25,25.78 42.03,19C7.3,10.2 -5.91,19.86 2.41,47.96C5.85,56.52 10.19,61.48 15.44,62.84C30.8,76.02 39.67,87.18 42.03,96.34C45.58,110.08 59.19,123.95 84.74,110.14C101.77,100.94 115.97,108.82 127.33,133.79C152.49,157.22 190.22,161.7 240.51,147.23C290.8,132.76 283.37,109.7 218.23,78.05Z " /><g opacity="1" transform="translate(103.23882209407006 61.877272252298226)  rotate(-45 35.540276000000006 95.94897485000001)"><path id="形状结合" fill-rule="evenodd" fill="url(#linear_8)" transform="translate(9.512602999999999 0)  rotate(0 30.783974500000006 95.94897485000001)" opacity="1" d="M19.88,139.24C23.5,143.61 32.31,151.34 41.89,153.81L48.4,191.9L53.87,191.9L46.69,155.88C51.55,151.7 61.32,140.36 61.57,137.75C57.67,144.03 46.23,152.77 46.23,152.77C46.23,152.77 46.21,152.99 46.18,153.31L37.47,109.66C44.73,104.66 60.93,84.41 61.57,79.96C58.14,86.22 49.93,95.07 36.92,106.51C36.9,106.57 36.89,106.64 36.88,106.7L27.42,59.25C36.42,49.96 47.73,16.5 42.92,28.48C39.67,36.57 34.35,46.05 26.96,56.92L15.61,0L23.1,43.84C7.01,33.95 1.77,19.52 0,20.1C4.96,29.94 12.75,38.85 23.37,46.85C23.42,46.56 23.45,46.26 23.46,45.97L41.79,153.24C41.49,152.39 41.28,151.43 41.16,150.35C35.04,149.66 27.94,145.95 19.88,139.24Z " /><path id="形状结合" fill-rule="evenodd" fill="url(#linear_9)" transform="translate(0 83.57259269999999)  rotate(0 21.015159499999996 9.66477350000001)" opacity="1" d="M42.03,19.33C41.96,18.14 41.96,17.09 42.03,16.19C21.25,13.06 7.24,7.67 0,0C6.18,8.34 21.82,16.96 42.03,19.33Z " /></g><path id="路径-65" fill-rule="evenodd" fill="url(#linear_10)" transform="translate(55.48131184818977 0)  rotate(0 101.78879021557498 108.40902358299971)" opacity="1" d="M141.36,213.52C226.68,227.29 206.35,195.65 184.42,161.36C168.55,145.48 166.42,135.78 166.42,123.64C166.42,111.5 178.04,91.66 144.66,83.4C130.01,80.07 122.32,65.41 121.61,39.43C119.3,26.37 105.31,23.1 79.63,29.63C68.21,31.83 56.67,26.32 45.02,13.12C12.85,-8.77 -2.08,-3.27 0.23,29.63C6.42,53.2 10.48,68.96 8.45,83.4C6.42,97.85 12.77,125.15 45.02,136.35C66.51,143.82 72.55,154.42 63.13,168.14C58.4,189.22 84.48,204.34 141.36,213.52Z " /><path id="形状结合" fill-rule="evenodd" fill="url(#linear_11)" transform="translate(107.14673787841122 14.866768521533658)  rotate(-26 35.960634999999996 108.35289125)" opacity="1" d="M0,83.57C6.18,91.92 24.45,99.94 44.67,102.31C44.64,101.95 44.63,101.61 44.62,101.27L53.71,148.48C41.12,148.8 30.88,145.67 23,139.11C26.58,143.42 34.41,150.89 54.37,151.9L66.32,213.98L71.92,216.71L58.51,154.62C66.14,150.04 69.4,143.21 71.08,137.75C67.49,145.11 60.49,149.87 57.84,151.48L48.75,109.42C61.82,102.16 70.44,84.42 71.08,79.96C65.02,92.38 57.45,101.1 48.36,106.1L48.07,106.26L37.82,58.78C51.06,48.56 50.84,38.81 51.93,31.25L51.93,31.21L51.87,31.52C49.76,41.09 44.93,49.22 37.36,55.91L37.22,56.03L25.12,0L33.6,44.04C13.64,35.25 11.28,19.52 9.51,20.1C12.76,32.66 20.93,41.65 34.01,47.06C34.04,46.88 34.06,46.7 34.08,46.52L44.21,99.12L44.67,99.18C22.13,96.44 7.24,91.24 0,83.57Z " /><path id="路径-96" fill-rule="evenodd" fill="url(#linear_12)" transform="translate(181.2638640281358 2.8424889704220817)  rotate(0 55.330767500054066 121.46848927270383)" opacity="1" d="M91.47,88.66C102.9,71.33 100.42,59.95 84.03,54.51C59.46,46.35 66.97,34.95 62.21,17.01C52.4,-3.76 41.28,-5.51 28.86,11.75C22.52,27.53 16.19,38.65 9.88,45.12C-4.58,67.63 -1.65,58.45 9.88,81.31C21.41,104.16 9.92,108.04 1.67,121.47C-8.24,154.28 28.86,158.05 35.23,168.99C41.59,179.92 28.86,201.97 35.23,217.98C41.59,233.98 84.03,260.42 102.05,226.38C120.07,192.34 105.41,174.82 97.78,168.99C92.7,165.09 92.7,157.36 97.78,145.79C112.45,124.67 113.87,112.6 102.05,109.57C90.23,106.53 86.7,99.56 91.47,88.66Z " /><g opacity="1" transform="translate(201.91219898800398 44.34917509623216)  rotate(0 35.540276500000004 95.94897495000001)"><path id="形状结合" fill-rule="evenodd" fill="url(#linear_13)" transform="translate(9.512603000000013 0)  rotate(0 30.783974999999998 95.94897495000001)" opacity="1" d="M23.46,45.97L41.79,153.24C41.49,152.39 41.28,151.43 41.16,150.35C35.04,149.66 27.94,145.95 19.88,139.24C23.5,143.61 32.31,151.34 41.89,153.81L48.4,191.9L53.87,191.9L46.69,155.88C51.55,151.7 61.32,140.36 61.57,137.75C57.67,144.03 46.23,152.77 46.23,152.77C46.23,152.77 46.21,152.99 46.18,153.31L37.47,109.66C44.73,104.66 60.93,84.41 61.57,79.96C58.14,86.22 49.93,95.07 36.92,106.51C36.9,106.57 36.89,106.64 36.88,106.7L27.42,59.25C36.42,49.96 47.73,16.5 42.92,28.48C39.67,36.57 34.35,46.05 26.96,56.92L15.61,0L23.1,43.84C7.01,33.95 1.77,19.52 0,20.1C4.96,29.94 12.75,38.85 23.37,46.85C23.42,46.56 23.45,46.26 23.46,45.97Z " /><path id="形状结合" fill-rule="evenodd" fill="url(#linear_14)" transform="translate(0 83.5725919)  rotate(0 21.01516000000001 9.664774000000001)" opacity="1" d="M42.03,19.33C41.96,18.14 41.96,17.09 42.03,16.19C21.25,13.06 7.24,7.67 0,0C6.18,8.34 21.82,16.96 42.03,19.33Z " /></g></g><g opacity="1" transform="translate(906.925398988004 612.9999999723443)  rotate(0 52 32.00000002206705)"><path id="路径-38" fill-rule="evenodd" fill="url(#linear_15)" transform="translate(20 13.394751852779663)  rotate(0 20.1911512 18.12624964861017)" opacity="1" d="M40.38,36.12C40.12,12.62 24.14,-2.07 0,0.24C17.84,1.96 25.3,13.92 22.4,36.12C29.38,36.3 35.38,36.3 40.38,36.12Z " /><path id="路径-39" fill-rule="evenodd" fill="url(#linear_16)" transform="translate(36.7306519 0)  rotate(0 20.3212756 24.999999987500004)" opacity="1" d="M40.64,49.65C35.78,16.44 20.82,6.57 0,0C16.31,10.69 22.1,27.24 17.39,49.65C26.54,50.12 34.29,50.12 40.64,49.65Z " /><path id="路径-40" fill-rule="evenodd" fill="url(#linear_17)" transform="translate(57.051927500000005 13.287657042201523)  rotate(0 23.47403625 18.35617147889924)" opacity="1" d="M46.95,0.11C30.83,-0.3 12.86,-1.38 0,36.71C10.9,36.36 18.9,36.36 24.02,36.71C21.93,15.42 29.58,3.22 46.95,0.11Z " /><path id="椭圆形" fill-rule="evenodd" fill="url(#linear_18)" transform="translate(0 20)  rotate(0 30.5 22.00000001394949)" opacity="1" d="M61,28.61C61,12.81 47.34,0 30.5,0C13.66,0 0,12.81 0,28.61C0,44.41 14.57,44 31.41,44C48.26,44 61,44.41 61,28.61Z " /><path id="椭圆形备份-6" fill-rule="evenodd" fill="url(#linear_19)" transform="translate(45 37)  rotate(0 19 13.500000022067049)" opacity="1" d="M38,17.56C38,7.86 29.49,0 19,0C8.51,0 0,7.86 0,17.56C0,27.25 9.07,27 19.57,27C30.06,27 38,27.25 38,17.56Z " /></g></g><g opacity="1" transform="translate(295.925398988004 322.99214093909063)  rotate(0 208.83639315983908 206.5540828796404)"><path id="路径" fill-rule="evenodd" fill="url(#linear_20)" transform="translate(0 134.9896980609094)  rotate(0 113.69338 120.487805)" opacity="1" d="M185.92,233.97L211.83,130.46L175.9,52.15L227.39,0L14.22,1.22C6.35,1.29 0,7.67 0,15.53L0,219.67C0,227.57 6.41,233.97 14.32,233.97L174.58,240.98L185.92,233.97Z " /><path id="路径备份" fill-rule="evenodd" fill="url(#linear_21)" transform="translate(0 144.04893206090935)  rotate(0 100.5574915 115.95818799999999)" opacity="1" d="M0,217.57C0,225.49 6.39,231.92 14.26,231.92L173.9,231.92L201.11,122.41L162.52,41.01L201.11,0L14.16,1.22C6.33,1.29 0,7.7 0,15.58L0,217.57Z " /><path id="路径" fill-rule="evenodd" fill="url(#linear_22)" transform="translate(0 249.13604002912928)  rotate(0 99.651568 63.414634015890016)" opacity="1" d="M137.7,64.75C121.65,50.72 100.45,30.33 74.1,3.59C69.53,-1.07 61.57,-1.21 56.79,3.27L0,82.21L0,111.28C0,119.09 4.8,126.83 15.6,126.83L174.5,126.83L190.02,63.71L199.3,25.37C158.98,51.57 138.45,64.7 137.7,64.75Z " /><path id="路径备份-2" fill-rule="evenodd" fill="url(#linear_23)" transform="translate(204.738676 155.82593506090933)  rotate(0 98.29268287277483 128.64111534918572)" opacity="1" d="M44.87,31.9L60.68,110.8L0,223.39L120.86,256.26C129.14,259.54 138.4,254.63 140.24,245.98L196.27,38.16C197.86,30.69 193.24,23.3 185.8,21.41L102.39,0L44.87,31.9Z " /><path id="路径" fill-rule="evenodd" fill="url(#linear_24)" transform="translate(194.77351899999996 162.1673990609093)  rotate(0 96.9337979713216 124.11149812271705)" opacity="1" d="M42.56,31.79L58.33,110.41L0,214.45L120.54,247.2C128.79,250.47 138.03,245.58 139.87,236.96L193.56,38.03C195.14,30.58 190.53,23.22 183.11,21.33L99.92,0L42.56,31.79Z " /><path id="路径" fill-rule="evenodd" fill="url(#linear_25)" transform="translate(195.67944300000002 264.53673686244844)  rotate(0 72.0209055 72.47386773111137)" opacity="1" d="M85.24,5.2C82.17,0.14 75.64,-1.5 70.56,1.49L58.07,7.92L0,112.13C69.13,131.42 107.76,141.98 115.88,143.79C128.07,146.52 137.02,144.63 138.85,135.94L144.04,118.14L85.24,5.2Z " /><path id="椭圆形" fill-rule="evenodd" style="fill:#FFFFFF" transform="translate(292.61324 208.36948906090936)  rotate(0 26.271777 26.271777)" opacity="1" d="M26.27,0C11.76,0 0,11.76 0,26.27C0,40.78 11.76,52.54 26.27,52.54C40.78,52.54 52.54,40.78 52.54,26.27C52.54,11.76 40.78,0 26.27,0Z " /><path id="路径-2" fill-rule="evenodd" fill="url(#linear_26)" transform="translate(75.04946913151134 2.773715230547566)  rotate(-26 16.546256999999997 44.2630721)" opacity="1" d="M0,48.97L21.33,48.97L21.33,88.53L33.09,38.09L11.41,38.09L8.87,0L0,48.97Z " /><path id="路径-3" fill-rule="evenodd" fill="url(#linear_27)" transform="translate(332.74488670114744 26.341128305719778)  rotate(27 29.518138451015716 64.11787745000001)" opacity="1" d="M0,62.54L36.73,73.66L10.8,128.24C44.38,85.24 60.43,63.34 58.94,62.54C57.46,61.74 44.94,58.28 21.4,52.15L36.73,0L0,62.54Z " /></g><path id="路径" fill-rule="evenodd" fill="url(#linear_28)" transform="translate(584.4524270851556 756.0272613493414)  rotate(-8 125.8484991307991 55.499999677111134)" opacity="0.4" d="M22.72,54.4C8.16,59.97 13.31,67.36 19.34,74.33C28.26,84.65 101.16,116.77 186.03,110.1C265.17,103.89 257.9,71.73 240.12,55.1C225.79,41.74 160.09,6.76 80.14,1.08C32.03,-2.35 10.42,2.96 5.56,8.7C-2.47,18.22 -4.65,27.24 18.89,38.42C40.03,48.45 30.64,51.36 22.72,54.4Z " /><g opacity="1" transform="translate(636.7532490291738 480.1627493352523)  rotate(0 84.57483320592573 178.14265823638885)"><path id="路径" fill-rule="evenodd" style="fill:#EBB0B0" transform="translate(75.02421589915491 6.685932668849716)  rotate(0 16.469135826933194 25.65703342073627)" opacity="1" d="M32.94,7.21L29.35,6.04C29.35,6.04 14.18,-2.25 13.39,0.6C12.61,3.45 11.18,8.11 7.6,8.59C4.02,9.07 2.64,16.54 0.32,30.03C-2,43.51 8.69,55.14 22.35,50.12C36,45.11 31.88,27.5 30.51,24.13C29.14,20.77 30.24,14.26 32.94,9.93L32.94,7.21Z " /><path id="路径" fill-rule="evenodd" style="fill:#131322" transform="translate(69.41181091004066 0)  rotate(0 20.77827540426908 21.725677339181118)" opacity="1" d="M38.12 5.01C37.62 1.57 26.53 0.75 24.54 0.08C22.78 -0.52 19.89 2.47 19.27 3.13C19.15 3.07 19.15 3.26 19.15 3.26C19.15 3.26 19.2 3.21 19.27 3.13C19.44 3.22 19.84 3.78 20.79 6C22.44 9.82 18.2 12.55 16.93 11.46C16.2178 10.8535 16.292 9.94976 16.3446 9.3087C16.3865 8.79766 16.4148 8.45354 16.02 8.56L13.62 9.31C12.28 17.89 11.48 16.65 11.48 16.65C6.52 19.74 6.33 17.7 2.74 23.82C-0.85 29.94 -3.06 41.52 10.35 43.29C13.7 43.73 18.19 43.29 24.26 41.52C30.33 39.74 40.76 30.89 41.46 21.67C41.9502 15.311 40.4049 11.431 39.2399 8.50584C38.7176 7.19438 38.2717 6.07488 38.12 5.01Z" /><path id="路径-127" fill-rule="evenodd" style="fill:#EFBA9E" transform="translate(18.084675453021305 94.69519680802995)  rotate(0 11.99999981039042 10.062640903780007)" opacity="1" d="M24,0.58C19.87,0.19 17,0 15.38,0C12.95,0 4.84,4.9 1.11,10.49C-1.38,14.22 0.33,16.55 6.23,17.49C8.79,16.47 9.8,16.47 9.26,17.49C6.69,21.44 10.61,20.11 12.54,18.85C13.83,18.01 16.96,15.22 21.94,10.49L24,0.58Z " /><path id="路径-128" fill-rule="evenodd" style="fill:#000000" transform="translate(12.077182453021322 79.13352980802998)  rotate(-22 10.251354000000006 15.523727000000008)" opacity="1" d="M3.19,0L0,1.84L17.31,31.05L20.5,29.2L3.19,0Z " /><path id="路径-126" fill-rule="evenodd" fill="url(#linear_29)" transform="translate(35.47841114745546 103.83725080802998)  rotate(0 23.561717877953633 20.5)" opacity="1" d="M41.42,0C24.95,3.01 1.57,20.5 0.57,27.34C-0.43,34.19 -1.11,37.69 7.57,41C13.57,40.33 22.98,36.67 35.81,30C48.71,13.71 50.58,3.71 41.42,0Z " /><path id="路径" fill-rule="evenodd" style="fill:#333333" transform="translate(4.2223844009420475 317.54938864296395)  rotate(33 22.47488282135903 14.409992632622274)" opacity="1" d="M43.98,3.87C42.22,1.25 34.9,-1.16 31.33,0.61C26.81,2.86 19.26,7.24 17.11,8.43C14.96,9.61 0.38,18.15 0.01,23.54C-0.35,28.92 8.09,30.52 18.05,26.79C28.01,23.05 41.88,16.48 41.88,16.48L44.68,14.6C44.53,9.2 45.74,6.49 43.98,3.87Z " /><path id="路径" fill-rule="evenodd" style="fill:#333333" transform="translate(122.2223839406737 323.54938892481556)  rotate(-9 22.47488304355328 14.40999263613567)" opacity="1" d="M43.98,3.87C42.22,1.25 34.9,-1.16 31.33,0.61C26.81,2.86 19.26,7.24 17.11,8.43C14.96,9.61 0.38,18.15 0.01,23.54C-0.35,28.92 8.09,30.52 18.05,26.79C28.01,23.05 41.88,16.48 41.88,16.48L44.68,14.6C44.53,9.2 45.74,6.49 43.98,3.87Z " /><path id="路径-130" fill-rule="evenodd" fill="url(#linear_30)" transform="translate(33.6220054530213 173.02885582088604)  rotate(0 41.3335406 81.29508129357198)" opacity="1" d="M82.67,151.76C68.46,117.33 41.35,91.44 39.55,83.09C37.11,67.44 20.99,7.74 14.79,2.93C8.59,-1.87 3.17,-0.68 0,5.82C0,13.24 11.19,65.47 18.08,98.74C22.67,120.92 30.64,142.2 41.99,162.59C69.02,161.23 82.58,157.62 82.67,151.76Z " /><path id="路径-129" fill-rule="evenodd" fill="url(#linear_31)" transform="translate(86.94156865302125 182.13570680802997)  rotate(0 38.840218375 76.9465746125)" opacity="1" d="M44.13,153.25C47.81,126.81 52.73,85.9 50.66,79.36C60.09,65.42 75.22,23.08 77.68,9.82C74.8,-2.6 71.8,2.45 66.01,0C24.41,59.89 2.41,110.98 0,153.25C22.28,154.11 36.99,154.11 44.13,153.25Z " /><path id="路径" fill-rule="evenodd" fill="url(#linear_32)" transform="translate(61.9645726561705 46.092988130543034)  rotate(0 40.67001530772336 70.23063317616987)" opacity="1" d="M78.21,80.33C78.52,75.29 85.1,20.52 78.21,9.68C73.06,-6.39 23.19,2.4 13.11,2.4C4.76,2.4 -2.97,7.71 1.13,16.5C12.77,41.45 -0.19,82.8 6.19,100.97C20.06,140.43 38.93,139.72 45.41,140.43C55.21,141.52 76.43,109.27 78.21,80.33Z " /><path id="路径-3" fill-rule="evenodd" style="fill:#EFBA9E" transform="translate(114.1721500632733 175.81282071804958)  rotate(13 7.5 11.012214999999998)" opacity="1" d="M0,15.63C0,18.61 1.37,22.02 7.5,22.02C13.63,22.02 15,16.82 15,13.2C15,10.79 13.43,6.38 10.29,0L1.51,3.62C0.5,9.64 0,13.65 0,15.63Z " /><path id="路径-2" fill-rule="evenodd" fill="url(#linear_33)" transform="translate(89.64175362448492 63.41628367740432)  rotate(0 26.99900241426817 60.962475455306816)" opacity="1" d="M33.53,65.99C31.94,83.35 23.13,111.23 25.56,117.42C27.99,123.62 34.08,122.55 38.5,119.42C42.51,114.83 51.53,100.44 54,65.99C49.2,34.55 38.86,10.35 18.32,0.1C3.99,-0.91 -1.93,5.97 0.55,20.74C4.12,33.86 15.11,48.94 33.53,65.99Z " /><path id="矩形" fill-rule="evenodd" style="fill:#9B643B" transform="translate(15.60009645302128 82.52091980802999)  rotate(150 0.4235709999999955 1.6344859999999812)" opacity="1" d="M0.85,0L0,0L0,3.27L0.85,3.27L0.85,0Z " /></g></g></g></g></svg>